solid Radiator fan 02
facet normal 0.0 0.0 -1.0
  outer loop
    vertex 23.13326053970022 13.782090146563805 0.0
    vertex 23.13326053970022 12.746813966153722 0.0
    vertex 23.065112192278356 13.264452056358762 0.0
  endloop
endfacet
facet normal 0.0 0.0 -1.0
  outer loop
    vertex 23.13326053970022 12.746813966153722 0.0
    vertex 23.13326053970022 13.782090146563805 0.0
    vertex 23.333061384709477 14.264452056358763 0.0
  endloop
endfacet
facet normal 0.0 0.0 -1.0
  outer loop
    vertex 23.13326053970022 12.746813966153722 0.0
    vertex 23.333061384709477 14.264452056358763 0.0
    vertex 23.333061384709477 12.264452056358762 0.0
  endloop
endfacet
facet normal 0.0 0.0 -1.0
  outer loop
    vertex 23.333061384709477 12.264452056358762 0.0
    vertex 23.333061384709477 14.264452056358763 0.0
    vertex 23.65089862990526 14.678665618731857 0.0
  endloop
endfacet
facet normal 0.0 0.0 -1.0
  outer loop
    vertex 23.333061384709477 12.264452056358762 0.0
    vertex 23.65089862990526 14.678665618731857 0.0
    vertex 23.65089862990526 11.850238493985668 0.0
  endloop
endfacet
facet normal 0.0 0.0 -1.0
  outer loop
    vertex 23.65089862990526 11.850238493985668 0.0
    vertex 23.65089862990526 14.678665618731857 0.0
    vertex 24.065112192278356 14.99650286392764 0.0
  endloop
endfacet
facet normal 0.0 0.0 -1.0
  outer loop
    vertex 23.65089862990526 11.850238493985668 0.0
    vertex 24.065112192278356 14.99650286392764 0.0
    vertex 24.065112192278356 11.532401248789885 0.0
  endloop
endfacet
facet normal 0.0 0.0 -1.0
  outer loop
    vertex 24.065112192278356 11.532401248789885 0.0
    vertex 24.065112192278356 14.99650286392764 0.0
    vertex 24.065649661003757 13.231670223307987 0.0
  endloop
endfacet
facet normal 0.0 0.0 -1.0
  outer loop
    vertex 24.065649661003757 13.231670223307987 0.0
    vertex 24.065112192278356 14.99650286392764 0.0
    vertex 24.091220958185065 13.491467175142159 0.0
  endloop
endfacet
facet normal 0.0 0.0 -1.0
  outer loop
    vertex 24.091220958185065 13.491467175142159 0.0
    vertex 24.065112192278356 14.99650286392764 0.0
    vertex 24.547474102073313 15.196303708936897 0.0
  endloop
endfacet
facet normal 0.0 0.0 -1.0
  outer loop
    vertex 24.091220958185065 13.491467175142159 0.0
    vertex 24.547474102073313 15.196303708936897 0.0
    vertex 24.183161333538468 13.735793421791467 0.0
  endloop
endfacet
facet normal 0.0 0.0 -1.0
  outer loop
    vertex 24.183161333538468 13.735793421791467 0.0
    vertex 24.547474102073313 15.196303708936897 0.0
    vertex 24.335205202422287 13.947998533314971 0.0
  endloop
endfacet
facet normal 0.0 0.0 -1.0
  outer loop
    vertex 24.335205202422287 13.947998533314971 0.0
    vertex 24.547474102073313 15.196303708936897 0.0
    vertex 24.536991026436464 14.113621082047873 0.0
  endloop
endfacet
facet normal 0.0 0.0 -1.0
  outer loop
    vertex 24.536991026436464 14.113621082047873 0.0
    vertex 24.547474102073313 15.196303708936897 0.0
    vertex 24.774767435141275 14.22137416499823 0.0
  endloop
endfacet
facet normal 0.0 0.0 -1.0
  outer loop
    vertex 24.774767435141275 14.22137416499823 0.0
    vertex 24.547474102073313 15.196303708936897 0.0
    vertex 25.06511219227836 15.264452056358762 0.0
  endloop
endfacet
facet normal 0.0 0.0 -1.0
  outer loop
    vertex 24.774767435141275 14.22137416499823 0.0
    vertex 25.06511219227836 15.264452056358762 0.0
    vertex 25.03233035922758 14.26391458763336 0.0
  endloop
endfacet
facet normal 0.0 0.0 -1.0
  outer loop
    vertex 25.03233035922758 14.26391458763336 0.0
    vertex 25.06511219227836 15.264452056358762 0.0
    vertex 25.292127311061755 14.238343290452054 0.0
  endloop
endfacet
facet normal 0.0 0.0 -1.0
  outer loop
    vertex 25.292127311061755 14.238343290452054 0.0
    vertex 25.06511219227836 15.264452056358762 0.0
    vertex 25.582750282483403 15.196303708936897 0.0
  endloop
endfacet
facet normal 0.0 0.0 -1.0
  outer loop
    vertex 25.292127311061755 14.238343290452054 0.0
    vertex 25.582750282483403 15.196303708936897 0.0
    vertex 25.536453557711063 14.146402915098651 0.0
  endloop
endfacet
facet normal 0.0 0.0 -1.0
  outer loop
    vertex 25.536453557711063 14.146402915098651 0.0
    vertex 25.582750282483403 15.196303708936897 0.0
    vertex 25.748658669234565 13.994359046214832 0.0
  endloop
endfacet
facet normal 0.0 0.0 -1.0
  outer loop
    vertex 25.748658669234565 13.994359046214832 0.0
    vertex 25.582750282483403 15.196303708936897 0.0
    vertex 26.06511219227836 14.996502863927637 0.0
  endloop
endfacet
facet normal 0.0 0.0 -1.0
  outer loop
    vertex 25.748658669234565 13.994359046214832 0.0
    vertex 26.06511219227836 14.996502863927637 0.0
    vertex 25.914281217967467 13.792573222200655 0.0
  endloop
endfacet
facet normal 0.0 0.0 -1.0
  outer loop
    vertex 25.914281217967467 13.792573222200655 0.0
    vertex 26.06511219227836 14.996502863927637 0.0
    vertex 26.022034300917827 13.554796813495843 0.0
  endloop
endfacet
facet normal 0.0 0.0 -1.0
  outer loop
    vertex 26.022034300917827 13.554796813495843 0.0
    vertex 26.06511219227836 14.996502863927637 0.0
    vertex 26.064574723552955 13.297233889409538 0.0
  endloop
endfacet
facet normal 0.0 0.0 -1.0
  outer loop
    vertex 26.064574723552955 13.297233889409538 0.0
    vertex 26.06511219227836 14.996502863927637 0.0
    vertex 26.065112192278356 11.532401248789885 0.0
  endloop
endfacet
facet normal 0.0 0.0 -1.0
  outer loop
    vertex 26.065112192278356 11.532401248789885 0.0
    vertex 26.06511219227836 14.996502863927637 0.0
    vertex 26.479325754651455 11.850238493985668 0.0
  endloop
endfacet
facet normal 0.0 0.0 -1.0
  outer loop
    vertex 26.479325754651455 11.850238493985668 0.0
    vertex 26.06511219227836 14.996502863927637 0.0
    vertex 26.479325754651455 14.678665618731856 0.0
  endloop
endfacet
facet normal 0.0 0.0 -1.0
  outer loop
    vertex 26.479325754651455 11.850238493985668 0.0
    vertex 26.479325754651455 14.678665618731856 0.0
    vertex 26.797162999847234 14.26445205635876 0.0
  endloop
endfacet
facet normal 0.0 0.0 -1.0
  outer loop
    vertex 26.479325754651455 11.850238493985668 0.0
    vertex 26.797162999847234 14.26445205635876 0.0
    vertex 26.797162999847234 12.264452056358762 0.0
  endloop
endfacet
facet normal 0.0 0.0 -1.0
  outer loop
    vertex 26.797162999847234 12.264452056358762 0.0
    vertex 26.797162999847234 14.26445205635876 0.0
    vertex 26.996963844856495 13.782090146563801 0.0
  endloop
endfacet
facet normal 0.0 0.0 -1.0
  outer loop
    vertex 26.797162999847234 12.264452056358762 0.0
    vertex 26.996963844856495 13.782090146563801 0.0
    vertex 26.996963844856495 12.746813966153722 0.0
  endloop
endfacet
facet normal 0.0 0.0 -1.0
  outer loop
    vertex 26.996963844856495 12.746813966153722 0.0
    vertex 26.996963844856495 13.782090146563801 0.0
    vertex 27.06511219227836 13.264452056358762 0.0
  endloop
endfacet
facet normal 0.0 0.0 -1.0
  outer loop
    vertex 24.065112192278356 11.532401248789885 0.0
    vertex 24.10819008363889 12.97410729922168 0.0
    vertex 24.547474102073316 11.332600403780626 0.0
  endloop
endfacet
facet normal 0.0 0.0 -1.0
  outer loop
    vertex 24.10819008363889 12.97410729922168 0.0
    vertex 24.065112192278356 11.532401248789885 0.0
    vertex 24.065649661003757 13.231670223307987 0.0
  endloop
endfacet
facet normal 0.0 0.0 -1.0
  outer loop
    vertex 24.547474102073316 11.332600403780626 0.0
    vertex 24.10819008363889 12.97410729922168 0.0
    vertex 24.21594316658924 12.736330890516868 0.0
  endloop
endfacet
facet normal 0.0 0.0 -1.0
  outer loop
    vertex 24.547474102073316 11.332600403780626 0.0
    vertex 24.21594316658924 12.736330890516868 0.0
    vertex 24.381565715322147 12.534545066502693 0.0
  endloop
endfacet
facet normal 0.0 0.0 -1.0
  outer loop
    vertex 24.547474102073316 11.332600403780626 0.0
    vertex 24.381565715322147 12.534545066502693 0.0
    vertex 24.593770826845653 12.382501197618872 0.0
  endloop
endfacet
facet normal 0.0 0.0 -1.0
  outer loop
    vertex 24.547474102073316 11.332600403780626 0.0
    vertex 24.593770826845653 12.382501197618872 0.0
    vertex 25.065112192278356 11.264452056358763 0.0
  endloop
endfacet
facet normal 0.0 0.0 -1.0
  outer loop
    vertex 25.065112192278356 11.264452056358763 0.0
    vertex 24.593770826845653 12.382501197618872 0.0
    vertex 24.83809707349496 12.29056082226547 0.0
  endloop
endfacet
facet normal 0.0 0.0 -1.0
  outer loop
    vertex 25.065112192278356 11.264452056358763 0.0
    vertex 24.83809707349496 12.29056082226547 0.0
    vertex 25.097894025329133 12.264989525084165 0.0
  endloop
endfacet
facet normal 0.0 0.0 -1.0
  outer loop
    vertex 25.065112192278356 11.264452056358763 0.0
    vertex 25.097894025329133 12.264989525084165 0.0
    vertex 25.582750282483396 11.332600403780626 0.0
  endloop
endfacet
facet normal 0.0 0.0 -1.0
  outer loop
    vertex 25.582750282483396 11.332600403780626 0.0
    vertex 25.097894025329133 12.264989525084165 0.0
    vertex 25.355456949415437 12.307529947719296 0.0
  endloop
endfacet
facet normal 0.0 0.0 -1.0
  outer loop
    vertex 25.582750282483396 11.332600403780626 0.0
    vertex 25.355456949415437 12.307529947719296 0.0
    vertex 25.593233358120248 12.41528303066965 0.0
  endloop
endfacet
facet normal 0.0 0.0 -1.0
  outer loop
    vertex 25.582750282483396 11.332600403780626 0.0
    vertex 25.593233358120248 12.41528303066965 0.0
    vertex 26.065112192278356 11.532401248789885 0.0
  endloop
endfacet
facet normal 0.0 0.0 -1.0
  outer loop
    vertex 26.065112192278356 11.532401248789885 0.0
    vertex 25.593233358120248 12.41528303066965 0.0
    vertex 25.795019182134425 12.580905579402552 0.0
  endloop
endfacet
facet normal 0.0 0.0 -1.0
  outer loop
    vertex 26.065112192278356 11.532401248789885 0.0
    vertex 25.795019182134425 12.580905579402552 0.0
    vertex 25.947063051018247 12.793110690926056 0.0
  endloop
endfacet
facet normal 0.0 0.0 -1.0
  outer loop
    vertex 26.065112192278356 11.532401248789885 0.0
    vertex 25.947063051018247 12.793110690926056 0.0
    vertex 26.03900342637165 13.037436937575364 0.0
  endloop
endfacet
facet normal 0.0 0.0 -1.0
  outer loop
    vertex 26.065112192278356 11.532401248789885 0.0
    vertex 26.03900342637165 13.037436937575364 0.0
    vertex 26.064574723552955 13.297233889409538 0.0
  endloop
endfacet
facet normal 0.9914448613738104 0.13052619222005216 0.0
  outer loop
    vertex 26.996963844856495 13.782090146563801 0.0
    vertex 27.06511219227836 13.264452056358762 3.0
    vertex 27.06511219227836 13.264452056358762 0.0
  endloop
endfacet
facet normal 0.9914448613738104 0.13052619222005216 0.0
  outer loop
    vertex 27.06511219227836 13.264452056358762 3.0
    vertex 26.996963844856495 13.782090146563801 0.0
    vertex 26.996963844856495 13.782090146563801 3.0
  endloop
endfacet
facet normal 0.7933533402912374 0.608761429008718 0.0
  outer loop
    vertex 26.479325754651455 14.678665618731856 0.0
    vertex 26.797162999847234 14.26445205635876 3.0
    vertex 26.797162999847234 14.26445205635876 0.0
  endloop
endfacet
facet normal 0.7933533402912374 0.608761429008718 0.0
  outer loop
    vertex 26.797162999847234 14.26445205635876 3.0
    vertex 26.479325754651455 14.678665618731856 0.0
    vertex 26.479325754651455 14.678665618731856 3.0
  endloop
endfacet
facet normal 0.9914448613738104 -0.13052619222005216 0.0
  outer loop
    vertex 27.06511219227836 13.264452056358762 0.0
    vertex 26.996963844856495 12.746813966153722 3.0
    vertex 26.996963844856495 12.746813966153722 0.0
  endloop
endfacet
facet normal 0.9914448613738104 -0.13052619222005216 0.0
  outer loop
    vertex 26.996963844856495 12.746813966153722 3.0
    vertex 27.06511219227836 13.264452056358762 0.0
    vertex 27.06511219227836 13.264452056358762 3.0
  endloop
endfacet
facet normal 0.9238795325112866 -0.3826834323650904 0.0
  outer loop
    vertex 26.996963844856495 12.746813966153722 0.0
    vertex 26.797162999847234 12.264452056358762 3.0
    vertex 26.797162999847234 12.264452056358762 0.0
  endloop
endfacet
facet normal 0.9238795325112866 -0.3826834323650904 0.0
  outer loop
    vertex 26.797162999847234 12.264452056358762 3.0
    vertex 26.996963844856495 12.746813966153722 0.0
    vertex 26.996963844856495 12.746813966153722 3.0
  endloop
endfacet
facet normal -0.13052619222005077 0.9914448613738106 0.0
  outer loop
    vertex 24.547474102073313 15.196303708936897 3.0
    vertex 25.06511219227836 15.264452056358762 0.0
    vertex 24.547474102073313 15.196303708936897 0.0
  endloop
endfacet
facet normal -0.13052619222005077 0.9914448613738106 0.0
  outer loop
    vertex 25.06511219227836 15.264452056358762 0.0
    vertex 24.547474102073313 15.196303708936897 3.0
    vertex 25.06511219227836 15.264452056358762 3.0
  endloop
endfacet
facet normal 0.7933533402912374 -0.608761429008718 0.0
  outer loop
    vertex 26.797162999847234 12.264452056358762 0.0
    vertex 26.479325754651455 11.850238493985668 3.0
    vertex 26.479325754651455 11.850238493985668 0.0
  endloop
endfacet
facet normal 0.7933533402912374 -0.608761429008718 0.0
  outer loop
    vertex 26.479325754651455 11.850238493985668 3.0
    vertex 26.797162999847234 12.264452056358762 0.0
    vertex 26.797162999847234 12.264452056358762 3.0
  endloop
endfacet
facet normal 0.13052619222005216 -0.9914448613738104 0.0
  outer loop
    vertex 25.582750282483396 11.332600403780626 3.0
    vertex 25.065112192278356 11.264452056358763 0.0
    vertex 25.582750282483396 11.332600403780626 0.0
  endloop
endfacet
facet normal 0.13052619222005216 -0.9914448613738104 0.0
  outer loop
    vertex 25.065112192278356 11.264452056358763 0.0
    vertex 25.582750282483396 11.332600403780626 3.0
    vertex 25.065112192278356 11.264452056358763 3.0
  endloop
endfacet
facet normal 0.38268343236508895 -0.9238795325112871 0.0
  outer loop
    vertex 26.065112192278356 11.532401248789885 3.0
    vertex 25.582750282483396 11.332600403780626 0.0
    vertex 26.065112192278356 11.532401248789885 0.0
  endloop
endfacet
facet normal 0.38268343236508895 -0.9238795325112871 0.0
  outer loop
    vertex 25.582750282483396 11.332600403780626 0.0
    vertex 26.065112192278356 11.532401248789885 3.0
    vertex 25.582750282483396 11.332600403780626 3.0
  endloop
endfacet
facet normal 0.9238795325112861 0.3826834323650913 0.0
  outer loop
    vertex 26.797162999847234 14.26445205635876 0.0
    vertex 26.996963844856495 13.782090146563801 3.0
    vertex 26.996963844856495 13.782090146563801 0.0
  endloop
endfacet
facet normal 0.9238795325112861 0.3826834323650913 0.0
  outer loop
    vertex 26.996963844856495 13.782090146563801 3.0
    vertex 26.797162999847234 14.26445205635876 0.0
    vertex 26.797162999847234 14.26445205635876 3.0
  endloop
endfacet
facet normal -0.13052619222005216 -0.9914448613738104 -0.0
  outer loop
    vertex 25.065112192278356 11.264452056358763 3.0
    vertex 24.547474102073316 11.332600403780626 0.0
    vertex 25.065112192278356 11.264452056358763 0.0
  endloop
endfacet
facet normal -0.13052619222005216 -0.9914448613738104 -0.0
  outer loop
    vertex 24.547474102073316 11.332600403780626 0.0
    vertex 25.065112192278356 11.264452056358763 3.0
    vertex 24.547474102073316 11.332600403780626 3.0
  endloop
endfacet
facet normal -0.3826834323650871 -0.923879532511288 -0.0
  outer loop
    vertex 24.547474102073316 11.332600403780626 3.0
    vertex 24.065112192278356 11.532401248789885 0.0
    vertex 24.547474102073316 11.332600403780626 0.0
  endloop
endfacet
facet normal -0.3826834323650871 -0.923879532511288 -0.0
  outer loop
    vertex 24.065112192278356 11.532401248789885 0.0
    vertex 24.547474102073316 11.332600403780626 3.0
    vertex 24.065112192278356 11.532401248789885 3.0
  endloop
endfacet
facet normal 0.6087614290087161 -0.7933533402912386 0.0
  outer loop
    vertex 26.479325754651455 11.850238493985668 3.0
    vertex 26.065112192278356 11.532401248789885 0.0
    vertex 26.479325754651455 11.850238493985668 0.0
  endloop
endfacet
facet normal 0.6087614290087161 -0.7933533402912386 0.0
  outer loop
    vertex 26.065112192278356 11.532401248789885 0.0
    vertex 26.479325754651455 11.850238493985668 3.0
    vertex 26.065112192278356 11.532401248789885 3.0
  endloop
endfacet
facet normal -0.6087614290087213 -0.7933533402912347 -0.0
  outer loop
    vertex 24.065112192278356 11.532401248789885 3.0
    vertex 23.65089862990526 11.850238493985668 0.0
    vertex 24.065112192278356 11.532401248789885 0.0
  endloop
endfacet
facet normal -0.6087614290087213 -0.7933533402912347 -0.0
  outer loop
    vertex 23.65089862990526 11.850238493985668 0.0
    vertex 24.065112192278356 11.532401248789885 3.0
    vertex 23.65089862990526 11.850238493985668 3.0
  endloop
endfacet
facet normal -0.7933533402912347 -0.6087614290087213 -0.0
  outer loop
    vertex 23.333061384709477 12.264452056358762 3.0
    vertex 23.65089862990526 11.850238493985668 0.0
    vertex 23.65089862990526 11.850238493985668 3.0
  endloop
endfacet
facet normal -0.7933533402912347 -0.6087614290087213 -0.0
  outer loop
    vertex 23.65089862990526 11.850238493985668 0.0
    vertex 23.333061384709477 12.264452056358762 3.0
    vertex 23.333061384709477 12.264452056358762 0.0
  endloop
endfacet
facet normal 0.6087614290087213 0.7933533402912347 0.0
  outer loop
    vertex 26.06511219227836 14.996502863927637 3.0
    vertex 26.479325754651455 14.678665618731856 0.0
    vertex 26.06511219227836 14.996502863927637 0.0
  endloop
endfacet
facet normal 0.6087614290087213 0.7933533402912347 0.0
  outer loop
    vertex 26.479325754651455 14.678665618731856 0.0
    vertex 26.06511219227836 14.996502863927637 3.0
    vertex 26.479325754651455 14.678665618731856 3.0
  endloop
endfacet
facet normal 0.13052619222005143 0.9914448613738105 0.0
  outer loop
    vertex 25.06511219227836 15.264452056358762 3.0
    vertex 25.582750282483403 15.196303708936897 0.0
    vertex 25.06511219227836 15.264452056358762 0.0
  endloop
endfacet
facet normal 0.13052619222005143 0.9914448613738105 0.0
  outer loop
    vertex 25.582750282483403 15.196303708936897 0.0
    vertex 25.06511219227836 15.264452056358762 3.0
    vertex 25.582750282483403 15.196303708936897 3.0
  endloop
endfacet
facet normal 0.3826834323650913 0.9238795325112861 0.0
  outer loop
    vertex 25.582750282483403 15.196303708936897 3.0
    vertex 26.06511219227836 14.996502863927637 0.0
    vertex 25.582750282483403 15.196303708936897 0.0
  endloop
endfacet
facet normal 0.3826834323650913 0.9238795325112861 0.0
  outer loop
    vertex 26.06511219227836 14.996502863927637 0.0
    vertex 25.582750282483403 15.196303708936897 3.0
    vertex 26.06511219227836 14.996502863927637 3.0
  endloop
endfacet
facet normal 0.1629574183984976 -0.9866331029257518 0.0
  outer loop
    vertex 25.03233035922758 14.26391458763336 3.0
    vertex 24.774767435141275 14.22137416499823 0.0
    vertex 25.03233035922758 14.26391458763336 0.0
  endloop
endfacet
facet normal 0.1629574183984976 -0.9866331029257518 0.0
  outer loop
    vertex 24.774767435141275 14.22137416499823 0.0
    vertex 25.03233035922758 14.26391458763336 3.0
    vertex 24.774767435141275 14.22137416499823 3.0
  endloop
endfacet
facet normal -0.9238795325112885 -0.38268343236508573 -0.0
  outer loop
    vertex 23.13326053970022 12.746813966153722 3.0
    vertex 23.333061384709477 12.264452056358762 0.0
    vertex 23.333061384709477 12.264452056358762 3.0
  endloop
endfacet
facet normal -0.9238795325112885 -0.38268343236508573 -0.0
  outer loop
    vertex 23.333061384709477 12.264452056358762 0.0
    vertex 23.13326053970022 12.746813966153722 3.0
    vertex 23.13326053970022 12.746813966153722 0.0
  endloop
endfacet
facet normal 0.09795465854928036 0.9951908786099751 0.0
  outer loop
    vertex 24.83809707349496 12.29056082226547 3.0
    vertex 25.097894025329133 12.264989525084165 0.0
    vertex 24.83809707349496 12.29056082226547 0.0
  endloop
endfacet
facet normal 0.09795465854928036 0.9951908786099751 0.0
  outer loop
    vertex 25.097894025329133 12.264989525084165 0.0
    vertex 24.83809707349496 12.29056082226547 3.0
    vertex 25.097894025329133 12.264989525084165 3.0
  endloop
endfacet
facet normal -0.7933533402912347 0.6087614290087213 0.0
  outer loop
    vertex 23.65089862990526 14.678665618731857 3.0
    vertex 23.333061384709477 14.264452056358763 0.0
    vertex 23.333061384709477 14.264452056358763 3.0
  endloop
endfacet
facet normal -0.7933533402912347 0.6087614290087213 0.0
  outer loop
    vertex 23.333061384709477 14.264452056358763 0.0
    vertex 23.65089862990526 14.678665618731857 3.0
    vertex 23.65089862990526 14.678665618731857 0.0
  endloop
endfacet
facet normal 0.9866331029257518 0.1629574183984976 0.0
  outer loop
    vertex 24.065649661003757 13.231670223307987 0.0
    vertex 24.10819008363889 12.97410729922168 3.0
    vertex 24.10819008363889 12.97410729922168 0.0
  endloop
endfacet
facet normal 0.9866331029257518 0.1629574183984976 0.0
  outer loop
    vertex 24.10819008363889 12.97410729922168 3.0
    vertex 24.065649661003757 13.231670223307987 0.0
    vertex 24.065649661003757 13.231670223307987 3.0
  endloop
endfacet
facet normal -0.1629574183984976 0.9866331029257518 0.0
  outer loop
    vertex 25.097894025329133 12.264989525084165 3.0
    vertex 25.355456949415437 12.307529947719296 0.0
    vertex 25.097894025329133 12.264989525084165 0.0
  endloop
endfacet
facet normal -0.1629574183984976 0.9866331029257518 0.0
  outer loop
    vertex 25.355456949415437 12.307529947719296 0.0
    vertex 25.097894025329133 12.264989525084165 3.0
    vertex 25.355456949415437 12.307529947719296 3.0
  endloop
endfacet
facet normal -0.6344418155311097 0.7729706221491147 0.0
  outer loop
    vertex 25.593233358120248 12.41528303066965 3.0
    vertex 25.795019182134425 12.580905579402552 0.0
    vertex 25.593233358120248 12.41528303066965 0.0
  endloop
endfacet
facet normal -0.6344418155311097 0.7729706221491147 0.0
  outer loop
    vertex 25.795019182134425 12.580905579402552 0.0
    vertex 25.593233358120248 12.41528303066965 3.0
    vertex 25.795019182134425 12.580905579402552 3.0
  endloop
endfacet
facet normal -0.3826834323650867 0.9238795325112881 0.0
  outer loop
    vertex 24.065112192278356 14.99650286392764 3.0
    vertex 24.547474102073313 15.196303708936897 0.0
    vertex 24.065112192278356 14.99650286392764 0.0
  endloop
endfacet
facet normal -0.3826834323650867 0.9238795325112881 0.0
  outer loop
    vertex 24.547474102073313 15.196303708936897 0.0
    vertex 24.065112192278356 14.99650286392764 3.0
    vertex 24.547474102073313 15.196303708936897 3.0
  endloop
endfacet
facet normal 0.9951908786099751 -0.09795465854928036 0.0
  outer loop
    vertex 24.091220958185065 13.491467175142159 0.0
    vertex 24.065649661003757 13.231670223307987 3.0
    vertex 24.065649661003757 13.231670223307987 0.0
  endloop
endfacet
facet normal 0.9951908786099751 -0.09795465854928036 0.0
  outer loop
    vertex 24.065649661003757 13.231670223307987 3.0
    vertex 24.091220958185065 13.491467175142159 0.0
    vertex 24.091220958185065 13.491467175142159 3.0
  endloop
endfacet
facet normal -0.9951908786099751 0.09795465854928036 0.0
  outer loop
    vertex 26.064574723552955 13.297233889409538 3.0
    vertex 26.03900342637165 13.037436937575364 0.0
    vertex 26.03900342637165 13.037436937575364 3.0
  endloop
endfacet
facet normal -0.9951908786099751 0.09795465854928036 0.0
  outer loop
    vertex 26.03900342637165 13.037436937575364 0.0
    vertex 26.064574723552955 13.297233889409538 3.0
    vertex 26.064574723552955 13.297233889409538 0.0
  endloop
endfacet
facet normal -0.9866331029257535 -0.16295741839848704 -0.0
  outer loop
    vertex 26.022034300917827 13.554796813495843 3.0
    vertex 26.064574723552955 13.297233889409538 0.0
    vertex 26.064574723552955 13.297233889409538 3.0
  endloop
endfacet
facet normal -0.9866331029257535 -0.16295741839848704 -0.0
  outer loop
    vertex 26.064574723552955 13.297233889409538 0.0
    vertex 26.022034300917827 13.554796813495843 3.0
    vertex 26.022034300917827 13.554796813495843 0.0
  endloop
endfacet
facet normal -0.9108379117654293 -0.41276421658229095 -0.0
  outer loop
    vertex 25.914281217967467 13.792573222200655 3.0
    vertex 26.022034300917827 13.554796813495843 0.0
    vertex 26.022034300917827 13.554796813495843 3.0
  endloop
endfacet
facet normal -0.9108379117654293 -0.41276421658229095 -0.0
  outer loop
    vertex 26.022034300917827 13.554796813495843 0.0
    vertex 25.914281217967467 13.792573222200655 3.0
    vertex 25.914281217967467 13.792573222200655 0.0
  endloop
endfacet
facet normal 0.9359280405476151 -0.35219128739465116 0.0
  outer loop
    vertex 24.183161333538468 13.735793421791467 0.0
    vertex 24.091220958185065 13.491467175142159 3.0
    vertex 24.091220958185065 13.491467175142159 0.0
  endloop
endfacet
facet normal 0.9359280405476151 -0.35219128739465116 0.0
  outer loop
    vertex 24.091220958185065 13.491467175142159 3.0
    vertex 24.183161333538468 13.735793421791467 0.0
    vertex 24.183161333538468 13.735793421791467 3.0
  endloop
endfacet
facet normal -0.9238795325112881 0.3826834323650867 0.0
  outer loop
    vertex 23.333061384709477 14.264452056358763 3.0
    vertex 23.13326053970022 13.782090146563805 0.0
    vertex 23.13326053970022 13.782090146563805 3.0
  endloop
endfacet
facet normal -0.9238795325112881 0.3826834323650867 0.0
  outer loop
    vertex 23.13326053970022 13.782090146563805 0.0
    vertex 23.333061384709477 14.264452056358763 3.0
    vertex 23.333061384709477 14.264452056358763 0.0
  endloop
endfacet
facet normal 0.8128832532161516 -0.5824266620276977 0.0
  outer loop
    vertex 24.335205202422287 13.947998533314971 0.0
    vertex 24.183161333538468 13.735793421791467 3.0
    vertex 24.183161333538468 13.735793421791467 0.0
  endloop
endfacet
facet normal 0.8128832532161516 -0.5824266620276977 0.0
  outer loop
    vertex 24.183161333538468 13.735793421791467 3.0
    vertex 24.335205202422287 13.947998533314971 0.0
    vertex 24.335205202422287 13.947998533314971 3.0
  endloop
endfacet
facet normal -0.41276421658227747 0.9108379117654353 0.0
  outer loop
    vertex 25.355456949415437 12.307529947719296 3.0
    vertex 25.593233358120248 12.41528303066965 0.0
    vertex 25.355456949415437 12.307529947719296 0.0
  endloop
endfacet
facet normal -0.41276421658227747 0.9108379117654353 0.0
  outer loop
    vertex 25.593233358120248 12.41528303066965 0.0
    vertex 25.355456949415437 12.307529947719296 3.0
    vertex 25.593233358120248 12.41528303066965 3.0
  endloop
endfacet
facet normal 0.35219128739465116 0.9359280405476151 0.0
  outer loop
    vertex 24.593770826845653 12.382501197618872 3.0
    vertex 24.83809707349496 12.29056082226547 0.0
    vertex 24.593770826845653 12.382501197618872 0.0
  endloop
endfacet
facet normal 0.35219128739465116 0.9359280405476151 0.0
  outer loop
    vertex 24.83809707349496 12.29056082226547 0.0
    vertex 24.593770826845653 12.382501197618872 3.0
    vertex 24.83809707349496 12.29056082226547 3.0
  endloop
endfacet
facet normal -0.8128832532161432 0.5824266620277093 0.0
  outer loop
    vertex 25.947063051018247 12.793110690926056 3.0
    vertex 25.795019182134425 12.580905579402552 0.0
    vertex 25.795019182134425 12.580905579402552 3.0
  endloop
endfacet
facet normal -0.8128832532161432 0.5824266620277093 0.0
  outer loop
    vertex 25.795019182134425 12.580905579402552 0.0
    vertex 25.947063051018247 12.793110690926056 3.0
    vertex 25.947063051018247 12.793110690926056 0.0
  endloop
endfacet
facet normal 0.5824266620276977 0.8128832532161516 0.0
  outer loop
    vertex 24.381565715322147 12.534545066502693 3.0
    vertex 24.593770826845653 12.382501197618872 0.0
    vertex 24.381565715322147 12.534545066502693 0.0
  endloop
endfacet
facet normal 0.5824266620276977 0.8128832532161516 0.0
  outer loop
    vertex 24.593770826845653 12.382501197618872 0.0
    vertex 24.381565715322147 12.534545066502693 3.0
    vertex 24.593770826845653 12.382501197618872 3.0
  endloop
endfacet
facet normal -0.9914448613738105 0.13052619222005143 0.0
  outer loop
    vertex 23.13326053970022 13.782090146563805 3.0
    vertex 23.065112192278356 13.264452056358762 0.0
    vertex 23.065112192278356 13.264452056358762 3.0
  endloop
endfacet
facet normal -0.9914448613738105 0.13052619222005143 0.0
  outer loop
    vertex 23.065112192278356 13.264452056358762 0.0
    vertex 23.13326053970022 13.782090146563805 3.0
    vertex 23.13326053970022 13.782090146563805 0.0
  endloop
endfacet
facet normal -0.9359280405476187 0.35219128739464167 0.0
  outer loop
    vertex 26.03900342637165 13.037436937575364 3.0
    vertex 25.947063051018247 12.793110690926056 0.0
    vertex 25.947063051018247 12.793110690926056 3.0
  endloop
endfacet
facet normal -0.9359280405476187 0.35219128739464167 0.0
  outer loop
    vertex 25.947063051018247 12.793110690926056 0.0
    vertex 26.03900342637165 13.037436937575364 3.0
    vertex 26.03900342637165 13.037436937575364 0.0
  endloop
endfacet
facet normal 0.6344418155311045 -0.772970622149119 0.0
  outer loop
    vertex 24.536991026436464 14.113621082047873 3.0
    vertex 24.335205202422287 13.947998533314971 0.0
    vertex 24.536991026436464 14.113621082047873 0.0
  endloop
endfacet
facet normal 0.6344418155311045 -0.772970622149119 0.0
  outer loop
    vertex 24.335205202422287 13.947998533314971 0.0
    vertex 24.536991026436464 14.113621082047873 3.0
    vertex 24.335205202422287 13.947998533314971 3.0
  endloop
endfacet
facet normal -0.772970622149119 -0.6344418155311045 -0.0
  outer loop
    vertex 25.748658669234565 13.994359046214832 3.0
    vertex 25.914281217967467 13.792573222200655 0.0
    vertex 25.914281217967467 13.792573222200655 3.0
  endloop
endfacet
facet normal -0.772970622149119 -0.6344418155311045 -0.0
  outer loop
    vertex 25.914281217967467 13.792573222200655 0.0
    vertex 25.748658669234565 13.994359046214832 3.0
    vertex 25.748658669234565 13.994359046214832 0.0
  endloop
endfacet
facet normal -0.5824266620276977 -0.8128832532161516 -0.0
  outer loop
    vertex 25.748658669234565 13.994359046214832 3.0
    vertex 25.536453557711063 14.146402915098651 0.0
    vertex 25.748658669234565 13.994359046214832 0.0
  endloop
endfacet
facet normal -0.5824266620276977 -0.8128832532161516 -0.0
  outer loop
    vertex 25.536453557711063 14.146402915098651 0.0
    vertex 25.748658669234565 13.994359046214832 3.0
    vertex 25.536453557711063 14.146402915098651 3.0
  endloop
endfacet
facet normal -0.35219128739465116 -0.9359280405476151 -0.0
  outer loop
    vertex 25.536453557711063 14.146402915098651 3.0
    vertex 25.292127311061755 14.238343290452054 0.0
    vertex 25.536453557711063 14.146402915098651 0.0
  endloop
endfacet
facet normal -0.35219128739465116 -0.9359280405476151 -0.0
  outer loop
    vertex 25.292127311061755 14.238343290452054 0.0
    vertex 25.536453557711063 14.146402915098651 3.0
    vertex 25.292127311061755 14.238343290452054 3.0
  endloop
endfacet
facet normal -0.09795465854928036 -0.9951908786099751 -0.0
  outer loop
    vertex 25.292127311061755 14.238343290452054 3.0
    vertex 25.03233035922758 14.26391458763336 0.0
    vertex 25.292127311061755 14.238343290452054 0.0
  endloop
endfacet
facet normal -0.09795465854928036 -0.9951908786099751 -0.0
  outer loop
    vertex 25.03233035922758 14.26391458763336 0.0
    vertex 25.292127311061755 14.238343290452054 3.0
    vertex 25.03233035922758 14.26391458763336 3.0
  endloop
endfacet
facet normal -0.9914448613738104 -0.13052619222005216 -0.0
  outer loop
    vertex 23.065112192278356 13.264452056358762 3.0
    vertex 23.13326053970022 12.746813966153722 0.0
    vertex 23.13326053970022 12.746813966153722 3.0
  endloop
endfacet
facet normal -0.9914448613738104 -0.13052619222005216 -0.0
  outer loop
    vertex 23.13326053970022 12.746813966153722 0.0
    vertex 23.065112192278356 13.264452056358762 3.0
    vertex 23.065112192278356 13.264452056358762 0.0
  endloop
endfacet
facet normal -0.6087614290087213 0.7933533402912347 0.0
  outer loop
    vertex 23.65089862990526 14.678665618731857 3.0
    vertex 24.065112192278356 14.99650286392764 0.0
    vertex 23.65089862990526 14.678665618731857 0.0
  endloop
endfacet
facet normal -0.6087614290087213 0.7933533402912347 0.0
  outer loop
    vertex 24.065112192278356 14.99650286392764 0.0
    vertex 23.65089862990526 14.678665618731857 3.0
    vertex 24.065112192278356 14.99650286392764 3.0
  endloop
endfacet
facet normal 0.7729706221491137 0.6344418155311109 0.0
  outer loop
    vertex 24.21594316658924 12.736330890516868 0.0
    vertex 24.381565715322147 12.534545066502693 3.0
    vertex 24.381565715322147 12.534545066502693 0.0
  endloop
endfacet
facet normal 0.7729706221491137 0.6344418155311109 0.0
  outer loop
    vertex 24.381565715322147 12.534545066502693 3.0
    vertex 24.21594316658924 12.736330890516868 0.0
    vertex 24.21594316658924 12.736330890516868 3.0
  endloop
endfacet
facet normal 0.9108379117654373 0.41276421658227297 0.0
  outer loop
    vertex 24.10819008363889 12.97410729922168 0.0
    vertex 24.21594316658924 12.736330890516868 3.0
    vertex 24.21594316658924 12.736330890516868 0.0
  endloop
endfacet
facet normal 0.9108379117654373 0.41276421658227297 0.0
  outer loop
    vertex 24.21594316658924 12.736330890516868 3.0
    vertex 24.10819008363889 12.97410729922168 0.0
    vertex 24.10819008363889 12.97410729922168 3.0
  endloop
endfacet
facet normal 0.41276421658228196 -0.9108379117654333 0.0
  outer loop
    vertex 24.774767435141275 14.22137416499823 3.0
    vertex 24.536991026436464 14.113621082047873 0.0
    vertex 24.774767435141275 14.22137416499823 0.0
  endloop
endfacet
facet normal 0.41276421658228196 -0.9108379117654333 0.0
  outer loop
    vertex 24.536991026436464 14.113621082047873 0.0
    vertex 24.774767435141275 14.22137416499823 3.0
    vertex 24.536991026436464 14.113621082047873 3.0
  endloop
endfacet
facet normal 0.0 0.0 1.0
  outer loop
    vertex 23.13326053970022 12.746813966153722 3.0
    vertex 23.13326053970022 13.782090146563805 3.0
    vertex 23.065112192278356 13.264452056358762 3.0
  endloop
endfacet
facet normal 0.0 0.0 1.0
  outer loop
    vertex 23.13326053970022 13.782090146563805 3.0
    vertex 23.13326053970022 12.746813966153722 3.0
    vertex 23.333061384709477 12.264452056358762 3.0
  endloop
endfacet
facet normal 0.0 0.0 1.0
  outer loop
    vertex 23.13326053970022 13.782090146563805 3.0
    vertex 23.333061384709477 12.264452056358762 3.0
    vertex 23.333061384709477 14.264452056358763 3.0
  endloop
endfacet
facet normal 0.0 0.0 1.0
  outer loop
    vertex 23.333061384709477 14.264452056358763 3.0
    vertex 23.333061384709477 12.264452056358762 3.0
    vertex 23.65089862990526 11.850238493985668 3.0
  endloop
endfacet
facet normal 0.0 0.0 1.0
  outer loop
    vertex 23.333061384709477 14.264452056358763 3.0
    vertex 23.65089862990526 11.850238493985668 3.0
    vertex 23.65089862990526 14.678665618731857 3.0
  endloop
endfacet
facet normal 0.0 0.0 1.0
  outer loop
    vertex 23.65089862990526 14.678665618731857 3.0
    vertex 23.65089862990526 11.850238493985668 3.0
    vertex 24.065112192278356 11.532401248789885 3.0
  endloop
endfacet
facet normal 0.0 0.0 1.0
  outer loop
    vertex 23.65089862990526 14.678665618731857 3.0
    vertex 24.065112192278356 11.532401248789885 3.0
    vertex 24.065112192278356 14.99650286392764 3.0
  endloop
endfacet
facet normal 0.0 0.0 1.0
  outer loop
    vertex 24.065112192278356 14.99650286392764 3.0
    vertex 24.065112192278356 11.532401248789885 3.0
    vertex 24.065649661003757 13.231670223307987 3.0
  endloop
endfacet
facet normal 0.0 0.0 1.0
  outer loop
    vertex 24.065649661003757 13.231670223307987 3.0
    vertex 24.065112192278356 11.532401248789885 3.0
    vertex 24.10819008363889 12.97410729922168 3.0
  endloop
endfacet
facet normal 0.0 0.0 1.0
  outer loop
    vertex 24.10819008363889 12.97410729922168 3.0
    vertex 24.065112192278356 11.532401248789885 3.0
    vertex 24.547474102073316 11.332600403780626 3.0
  endloop
endfacet
facet normal 0.0 0.0 1.0
  outer loop
    vertex 24.10819008363889 12.97410729922168 3.0
    vertex 24.547474102073316 11.332600403780626 3.0
    vertex 24.21594316658924 12.736330890516868 3.0
  endloop
endfacet
facet normal 0.0 0.0 1.0
  outer loop
    vertex 24.21594316658924 12.736330890516868 3.0
    vertex 24.547474102073316 11.332600403780626 3.0
    vertex 24.381565715322147 12.534545066502693 3.0
  endloop
endfacet
facet normal 0.0 0.0 1.0
  outer loop
    vertex 24.381565715322147 12.534545066502693 3.0
    vertex 24.547474102073316 11.332600403780626 3.0
    vertex 24.593770826845653 12.382501197618872 3.0
  endloop
endfacet
facet normal 0.0 0.0 1.0
  outer loop
    vertex 24.593770826845653 12.382501197618872 3.0
    vertex 24.547474102073316 11.332600403780626 3.0
    vertex 25.065112192278356 11.264452056358763 3.0
  endloop
endfacet
facet normal 0.0 0.0 1.0
  outer loop
    vertex 24.593770826845653 12.382501197618872 3.0
    vertex 25.065112192278356 11.264452056358763 3.0
    vertex 24.83809707349496 12.29056082226547 3.0
  endloop
endfacet
facet normal 0.0 0.0 1.0
  outer loop
    vertex 24.83809707349496 12.29056082226547 3.0
    vertex 25.065112192278356 11.264452056358763 3.0
    vertex 25.097894025329133 12.264989525084165 3.0
  endloop
endfacet
facet normal 0.0 0.0 1.0
  outer loop
    vertex 25.097894025329133 12.264989525084165 3.0
    vertex 25.065112192278356 11.264452056358763 3.0
    vertex 25.582750282483396 11.332600403780626 3.0
  endloop
endfacet
facet normal 0.0 0.0 1.0
  outer loop
    vertex 25.097894025329133 12.264989525084165 3.0
    vertex 25.582750282483396 11.332600403780626 3.0
    vertex 25.355456949415437 12.307529947719296 3.0
  endloop
endfacet
facet normal 0.0 0.0 1.0
  outer loop
    vertex 25.355456949415437 12.307529947719296 3.0
    vertex 25.582750282483396 11.332600403780626 3.0
    vertex 25.593233358120248 12.41528303066965 3.0
  endloop
endfacet
facet normal 0.0 0.0 1.0
  outer loop
    vertex 25.593233358120248 12.41528303066965 3.0
    vertex 25.582750282483396 11.332600403780626 3.0
    vertex 26.065112192278356 11.532401248789885 3.0
  endloop
endfacet
facet normal 0.0 0.0 1.0
  outer loop
    vertex 25.593233358120248 12.41528303066965 3.0
    vertex 26.065112192278356 11.532401248789885 3.0
    vertex 25.795019182134425 12.580905579402552 3.0
  endloop
endfacet
facet normal 0.0 0.0 1.0
  outer loop
    vertex 25.795019182134425 12.580905579402552 3.0
    vertex 26.065112192278356 11.532401248789885 3.0
    vertex 25.947063051018247 12.793110690926056 3.0
  endloop
endfacet
facet normal 0.0 0.0 1.0
  outer loop
    vertex 25.947063051018247 12.793110690926056 3.0
    vertex 26.065112192278356 11.532401248789885 3.0
    vertex 26.03900342637165 13.037436937575364 3.0
  endloop
endfacet
facet normal 0.0 0.0 1.0
  outer loop
    vertex 26.03900342637165 13.037436937575364 3.0
    vertex 26.065112192278356 11.532401248789885 3.0
    vertex 26.064574723552955 13.297233889409538 3.0
  endloop
endfacet
facet normal 0.0 0.0 1.0
  outer loop
    vertex 24.065112192278356 14.99650286392764 3.0
    vertex 24.091220958185065 13.491467175142159 3.0
    vertex 24.547474102073313 15.196303708936897 3.0
  endloop
endfacet
facet normal 0.0 0.0 1.0
  outer loop
    vertex 24.091220958185065 13.491467175142159 3.0
    vertex 24.065112192278356 14.99650286392764 3.0
    vertex 24.065649661003757 13.231670223307987 3.0
  endloop
endfacet
facet normal 0.0 0.0 1.0
  outer loop
    vertex 24.547474102073313 15.196303708936897 3.0
    vertex 24.091220958185065 13.491467175142159 3.0
    vertex 24.183161333538468 13.735793421791467 3.0
  endloop
endfacet
facet normal 0.0 0.0 1.0
  outer loop
    vertex 24.547474102073313 15.196303708936897 3.0
    vertex 24.183161333538468 13.735793421791467 3.0
    vertex 24.335205202422287 13.947998533314971 3.0
  endloop
endfacet
facet normal 0.0 0.0 1.0
  outer loop
    vertex 24.547474102073313 15.196303708936897 3.0
    vertex 24.335205202422287 13.947998533314971 3.0
    vertex 24.536991026436464 14.113621082047873 3.0
  endloop
endfacet
facet normal 0.0 0.0 1.0
  outer loop
    vertex 24.547474102073313 15.196303708936897 3.0
    vertex 24.536991026436464 14.113621082047873 3.0
    vertex 24.774767435141275 14.22137416499823 3.0
  endloop
endfacet
facet normal 0.0 0.0 1.0
  outer loop
    vertex 24.547474102073313 15.196303708936897 3.0
    vertex 24.774767435141275 14.22137416499823 3.0
    vertex 25.06511219227836 15.264452056358762 3.0
  endloop
endfacet
facet normal 0.0 0.0 1.0
  outer loop
    vertex 25.06511219227836 15.264452056358762 3.0
    vertex 24.774767435141275 14.22137416499823 3.0
    vertex 25.03233035922758 14.26391458763336 3.0
  endloop
endfacet
facet normal 0.0 0.0 1.0
  outer loop
    vertex 25.06511219227836 15.264452056358762 3.0
    vertex 25.03233035922758 14.26391458763336 3.0
    vertex 25.292127311061755 14.238343290452054 3.0
  endloop
endfacet
facet normal 0.0 0.0 1.0
  outer loop
    vertex 25.06511219227836 15.264452056358762 3.0
    vertex 25.292127311061755 14.238343290452054 3.0
    vertex 25.582750282483403 15.196303708936897 3.0
  endloop
endfacet
facet normal 0.0 0.0 1.0
  outer loop
    vertex 25.582750282483403 15.196303708936897 3.0
    vertex 25.292127311061755 14.238343290452054 3.0
    vertex 25.536453557711063 14.146402915098651 3.0
  endloop
endfacet
facet normal 0.0 0.0 1.0
  outer loop
    vertex 25.582750282483403 15.196303708936897 3.0
    vertex 25.536453557711063 14.146402915098651 3.0
    vertex 25.748658669234565 13.994359046214832 3.0
  endloop
endfacet
facet normal 0.0 0.0 1.0
  outer loop
    vertex 25.582750282483403 15.196303708936897 3.0
    vertex 25.748658669234565 13.994359046214832 3.0
    vertex 26.06511219227836 14.996502863927637 3.0
  endloop
endfacet
facet normal 0.0 0.0 1.0
  outer loop
    vertex 26.06511219227836 14.996502863927637 3.0
    vertex 25.748658669234565 13.994359046214832 3.0
    vertex 25.914281217967467 13.792573222200655 3.0
  endloop
endfacet
facet normal 0.0 0.0 1.0
  outer loop
    vertex 26.06511219227836 14.996502863927637 3.0
    vertex 25.914281217967467 13.792573222200655 3.0
    vertex 26.022034300917827 13.554796813495843 3.0
  endloop
endfacet
facet normal 0.0 0.0 1.0
  outer loop
    vertex 26.06511219227836 14.996502863927637 3.0
    vertex 26.022034300917827 13.554796813495843 3.0
    vertex 26.064574723552955 13.297233889409538 3.0
  endloop
endfacet
facet normal 0.0 0.0 1.0
  outer loop
    vertex 26.06511219227836 14.996502863927637 3.0
    vertex 26.064574723552955 13.297233889409538 3.0
    vertex 26.065112192278356 11.532401248789885 3.0
  endloop
endfacet
facet normal 0.0 0.0 1.0
  outer loop
    vertex 26.06511219227836 14.996502863927637 3.0
    vertex 26.065112192278356 11.532401248789885 3.0
    vertex 26.479325754651455 11.850238493985668 3.0
  endloop
endfacet
facet normal 0.0 0.0 1.0
  outer loop
    vertex 26.06511219227836 14.996502863927637 3.0
    vertex 26.479325754651455 11.850238493985668 3.0
    vertex 26.479325754651455 14.678665618731856 3.0
  endloop
endfacet
facet normal 0.0 0.0 1.0
  outer loop
    vertex 26.479325754651455 14.678665618731856 3.0
    vertex 26.479325754651455 11.850238493985668 3.0
    vertex 26.797162999847234 12.264452056358762 3.0
  endloop
endfacet
facet normal 0.0 0.0 1.0
  outer loop
    vertex 26.479325754651455 14.678665618731856 3.0
    vertex 26.797162999847234 12.264452056358762 3.0
    vertex 26.797162999847234 14.26445205635876 3.0
  endloop
endfacet
facet normal 0.0 0.0 1.0
  outer loop
    vertex 26.797162999847234 14.26445205635876 3.0
    vertex 26.797162999847234 12.264452056358762 3.0
    vertex 26.996963844856495 12.746813966153722 3.0
  endloop
endfacet
facet normal 0.0 0.0 1.0
  outer loop
    vertex 26.797162999847234 14.26445205635876 3.0
    vertex 26.996963844856495 12.746813966153722 3.0
    vertex 26.996963844856495 13.782090146563801 3.0
  endloop
endfacet
facet normal 0.0 0.0 1.0
  outer loop
    vertex 26.996963844856495 13.782090146563801 3.0
    vertex 26.996963844856495 12.746813966153722 3.0
    vertex 27.06511219227836 13.264452056358762 3.0
  endloop
endfacet
endsolid Radiator fan 02
