solid Radiator fan 06
facet normal 0.0 0.0 1.0
  outer loop
    vertex 19.13364703825826 54.75396294917155 2.0000000000004166
    vertex 21.133647038258257 52.753962949171544 2.0000000000004166
    vertex 24.133647038258257 54.75396294917155 2.0000000000004166
  endloop
endfacet
facet normal 0.0 0.0 1.0
  outer loop
    vertex 21.133647038258257 52.753962949171544 2.0000000000004166
    vertex 19.13364703825826 54.75396294917155 2.0000000000004166
    vertex 21.133647038258257 46.25396294917154 2.0000000000004166
  endloop
endfacet
facet normal 0.0 0.0 1.0
  outer loop
    vertex 21.133647038258257 52.753962949171544 2.0000000000004166
    vertex 21.133647038258257 46.25396294917154 2.0000000000004166
    vertex 21.133647038258257 47.75396294917154 2.0000000000004166
  endloop
endfacet
facet normal 0.0 0.0 1.0
  outer loop
    vertex 21.133647038258257 52.753962949171544 2.0000000000004166
    vertex 21.133647038258257 47.75396294917154 2.0000000000004166
    vertex 21.133647038258257 51.25396294917155 2.0000000000004166
  endloop
endfacet
facet normal 0.0 0.0 1.0
  outer loop
    vertex 24.133647038258257 54.75396294917155 2.0000000000004166
    vertex 21.133647038258257 52.753962949171544 2.0000000000004166
    vertex 24.133647038258257 52.753962949171544 2.0000000000004166
  endloop
endfacet
facet normal 0.0 0.0 1.0
  outer loop
    vertex 24.133647038258257 47.75396294917154 2.0000000000004166
    vertex 21.133647038258257 51.25396294917155 2.0000000000004166
    vertex 21.133647038258257 47.75396294917154 2.0000000000004166
  endloop
endfacet
facet normal 0.0 0.0 1.0
  outer loop
    vertex 21.133647038258257 51.25396294917155 2.0000000000004166
    vertex 24.133647038258257 47.75396294917154 2.0000000000004166
    vertex 24.133647038258257 51.25396294917155 2.0000000000004166
  endloop
endfacet
facet normal 0.0 0.0 1.0
  outer loop
    vertex 19.13364703825826 44.25396294917154 2.0000000000004166
    vertex 21.133647038258257 46.25396294917154 2.0000000000004166
    vertex 19.13364703825826 54.75396294917155 2.0000000000004166
  endloop
endfacet
facet normal 0.0 0.0 1.0
  outer loop
    vertex 21.133647038258257 46.25396294917154 2.0000000000004166
    vertex 19.13364703825826 44.25396294917154 2.0000000000004166
    vertex 24.133647038258257 44.25396294917154 2.0000000000004166
  endloop
endfacet
facet normal 0.0 0.0 1.0
  outer loop
    vertex 21.133647038258257 46.25396294917154 2.0000000000004166
    vertex 24.133647038258257 44.25396294917154 2.0000000000004166
    vertex 24.133647038258257 46.25396294917154 2.0000000000004166
  endloop
endfacet
facet normal 0.0 0.0 1.0
  outer loop
    vertex 24.133647038258257 28.25396294917154 2.0000000000004166
    vertex 32.13364703825825 34.25396294917153 2.0000000000004166
    vertex 24.133647038258257 44.25396294917154 2.0000000000004166
  endloop
endfacet
facet normal 0.0 0.0 1.0
  outer loop
    vertex 32.13364703825825 34.25396294917153 2.0000000000004166
    vertex 24.133647038258257 28.25396294917154 2.0000000000004166
    vertex 86.13438743026998 28.25396294917154 2.0000000000004166
  endloop
endfacet
facet normal 0.0 0.0 1.0
  outer loop
    vertex 24.133647038258257 44.25396294917154 2.0000000000004166
    vertex 32.13364703825825 34.25396294917153 2.0000000000004166
    vertex 24.133647038258257 46.25396294917154 2.0000000000004166
  endloop
endfacet
facet normal 0.0 0.0 1.0
  outer loop
    vertex 24.133647038258257 46.25396294917154 2.0000000000004166
    vertex 32.13364703825825 34.25396294917153 2.0000000000004166
    vertex 24.133647038258257 47.75396294917154 2.0000000000004166
  endloop
endfacet
facet normal 0.0 0.0 1.0
  outer loop
    vertex 24.133647038258257 47.75396294917154 2.0000000000004166
    vertex 32.13364703825825 34.25396294917153 2.0000000000004166
    vertex 24.133647038258257 51.25396294917155 2.0000000000004166
  endloop
endfacet
facet normal 0.0 0.0 1.0
  outer loop
    vertex 24.133647038258257 51.25396294917155 2.0000000000004166
    vertex 32.13364703825825 34.25396294917153 2.0000000000004166
    vertex 24.133647038258257 52.753962949171544 2.0000000000004166
  endloop
endfacet
facet normal 0.0 0.0 1.0
  outer loop
    vertex 24.133647038258257 52.753962949171544 2.0000000000004166
    vertex 32.13364703825825 34.25396294917153 2.0000000000004166
    vertex 24.133647038258257 54.75396294917155 2.0000000000004166
  endloop
endfacet
facet normal 0.0 0.0 1.0
  outer loop
    vertex 24.133647038258257 54.75396294917155 2.0000000000004166
    vertex 32.13364703825825 34.25396294917153 2.0000000000004166
    vertex 24.133647038258257 70.75396294917157 2.0000000000004166
  endloop
endfacet
facet normal 0.0 0.0 1.0
  outer loop
    vertex 32.13364703825825 34.25396294917153 2.0000000000004166
    vertex 86.13438743026998 28.25396294917154 2.0000000000004166
    vertex 78.13438743027 34.25396294917153 2.0000000000004166
  endloop
endfacet
facet normal 0.0 0.0 1.0
  outer loop
    vertex 78.13438743027 34.25396294917153 2.0000000000004166
    vertex 86.13438743026998 28.25396294917154 2.0000000000004166
    vertex 78.13438743027 37.253962949171544 2.0000000000004166
  endloop
endfacet
facet normal 0.0 0.0 1.0
  outer loop
    vertex 78.13438743027 37.253962949171544 2.0000000000004166
    vertex 86.13438743026998 28.25396294917154 2.0000000000004166
    vertex 78.13438743027 40.253962949171544 2.0000000000004166
  endloop
endfacet
facet normal 0.0 0.0 1.0
  outer loop
    vertex 78.13438743027 40.253962949171544 2.0000000000004166
    vertex 86.13438743026998 28.25396294917154 2.0000000000004166
    vertex 78.13438743027 43.25396294917154 2.0000000000004166
  endloop
endfacet
facet normal 0.0 0.0 1.0
  outer loop
    vertex 78.13438743027 43.25396294917154 2.0000000000004166
    vertex 86.13438743026998 28.25396294917154 2.0000000000004166
    vertex 78.13438743027 46.25396294917153 2.0000000000004166
  endloop
endfacet
facet normal 0.0 0.0 1.0
  outer loop
    vertex 78.13438743027 46.25396294917153 2.0000000000004166
    vertex 86.13438743026998 28.25396294917154 2.0000000000004166
    vertex 78.13438743027 49.25396294917152 2.0000000000004166
  endloop
endfacet
facet normal 0.0 0.0 1.0
  outer loop
    vertex 78.13438743027 49.25396294917152 2.0000000000004166
    vertex 86.13438743026998 28.25396294917154 2.0000000000004166
    vertex 78.13438743027 52.253962949171594 2.0000000000004166
  endloop
endfacet
facet normal 0.0 0.0 1.0
  outer loop
    vertex 78.13438743027 52.253962949171594 2.0000000000004166
    vertex 86.13438743026998 28.25396294917154 2.0000000000004166
    vertex 78.13438743027 55.25396294917159 2.0000000000004166
  endloop
endfacet
facet normal 0.0 0.0 1.0
  outer loop
    vertex 78.13438743027 55.25396294917159 2.0000000000004166
    vertex 86.13438743026998 28.25396294917154 2.0000000000004166
    vertex 78.13438743027 58.25396294917158 2.0000000000004166
  endloop
endfacet
facet normal 0.0 0.0 1.0
  outer loop
    vertex 78.13438743027 58.25396294917158 2.0000000000004166
    vertex 86.13438743026998 28.25396294917154 2.0000000000004166
    vertex 78.13438743027 61.25396294917158 2.0000000000004166
  endloop
endfacet
facet normal 0.0 0.0 1.0
  outer loop
    vertex 78.13438743027 61.25396294917158 2.0000000000004166
    vertex 86.13438743026998 28.25396294917154 2.0000000000004166
    vertex 78.13438743027 64.25396294917157 2.0000000000004166
  endloop
endfacet
facet normal 0.0 0.0 1.0
  outer loop
    vertex 78.13438743027 64.25396294917157 2.0000000000004166
    vertex 86.13438743026998 28.25396294917154 2.0000000000004166
    vertex 78.13438743027 67.25396294917157 2.0000000000004166
  endloop
endfacet
facet normal 0.0 0.0 1.0
  outer loop
    vertex 24.133647038258257 70.75396294917157 2.0000000000004166
    vertex 32.13364703825825 67.25396294917157 2.0000000000004166
    vertex 86.13438743026998 70.75396294917157 2.0000000000004166
  endloop
endfacet
facet normal 0.0 0.0 1.0
  outer loop
    vertex 32.13364703825825 67.25396294917157 2.0000000000004166
    vertex 24.133647038258257 70.75396294917157 2.0000000000004166
    vertex 32.13364703825825 34.25396294917153 2.0000000000004166
  endloop
endfacet
facet normal 0.0 0.0 1.0
  outer loop
    vertex 32.13364703825825 67.25396294917157 2.0000000000004166
    vertex 32.13364703825825 34.25396294917153 2.0000000000004166
    vertex 32.13364703825825 37.253962949171544 2.0000000000004166
  endloop
endfacet
facet normal 0.0 0.0 1.0
  outer loop
    vertex 32.13364703825825 67.25396294917157 2.0000000000004166
    vertex 32.13364703825825 37.253962949171544 2.0000000000004166
    vertex 32.13364703825825 40.253962949171544 2.0000000000004166
  endloop
endfacet
facet normal 0.0 0.0 1.0
  outer loop
    vertex 32.13364703825825 67.25396294917157 2.0000000000004166
    vertex 32.13364703825825 40.253962949171544 2.0000000000004166
    vertex 32.13364703825825 43.25396294917154 2.0000000000004166
  endloop
endfacet
facet normal 0.0 0.0 1.0
  outer loop
    vertex 32.13364703825825 67.25396294917157 2.0000000000004166
    vertex 32.13364703825825 43.25396294917154 2.0000000000004166
    vertex 32.13364703825825 46.25396294917153 2.0000000000004166
  endloop
endfacet
facet normal 0.0 0.0 1.0
  outer loop
    vertex 32.13364703825825 67.25396294917157 2.0000000000004166
    vertex 32.13364703825825 46.25396294917153 2.0000000000004166
    vertex 32.13364703825825 49.25396294917152 2.0000000000004166
  endloop
endfacet
facet normal 0.0 0.0 1.0
  outer loop
    vertex 32.13364703825825 67.25396294917157 2.0000000000004166
    vertex 32.13364703825825 49.25396294917152 2.0000000000004166
    vertex 32.13364703825825 52.253962949171594 2.0000000000004166
  endloop
endfacet
facet normal 0.0 0.0 1.0
  outer loop
    vertex 32.13364703825825 67.25396294917157 2.0000000000004166
    vertex 32.13364703825825 52.253962949171594 2.0000000000004166
    vertex 32.13364703825825 55.25396294917159 2.0000000000004166
  endloop
endfacet
facet normal 0.0 0.0 1.0
  outer loop
    vertex 32.13364703825825 67.25396294917157 2.0000000000004166
    vertex 32.13364703825825 55.25396294917159 2.0000000000004166
    vertex 32.13364703825825 58.25396294917158 2.0000000000004166
  endloop
endfacet
facet normal 0.0 0.0 1.0
  outer loop
    vertex 32.13364703825825 67.25396294917157 2.0000000000004166
    vertex 32.13364703825825 58.25396294917158 2.0000000000004166
    vertex 32.13364703825825 61.25396294917158 2.0000000000004277
  endloop
endfacet
facet normal 0.0 0.0 1.0
  outer loop
    vertex 32.13364703825825 67.25396294917157 2.0000000000004166
    vertex 32.13364703825825 61.25396294917158 2.0000000000004277
    vertex 32.13364703825825 64.25396294917157 2.0000000000004166
  endloop
endfacet
facet normal 0.0 0.0 1.0
  outer loop
    vertex 86.13438743026998 70.75396294917157 2.0000000000004166
    vertex 32.13364703825825 67.25396294917157 2.0000000000004166
    vertex 78.13438743027 67.25396294917157 2.0000000000004166
  endloop
endfacet
facet normal 0.0 0.0 1.0
  outer loop
    vertex 86.13438743026998 70.75396294917157 2.0000000000004166
    vertex 78.13438743027 67.25396294917157 2.0000000000004166
    vertex 86.13438743026998 28.25396294917154 2.0000000000004166
  endloop
endfacet
facet normal 0.0 0.0 1.0
  outer loop
    vertex 78.13438743027 61.25396294917158 2.0000000000004166
    vertex 32.13364703825825 64.25396294917157 2.0000000000004166
    vertex 32.13364703825825 61.25396294917158 2.0000000000004277
  endloop
endfacet
facet normal 0.0 0.0 1.0
  outer loop
    vertex 32.13364703825825 64.25396294917157 2.0000000000004166
    vertex 78.13438743027 61.25396294917158 2.0000000000004166
    vertex 78.13438743027 64.25396294917157 2.0000000000004166
  endloop
endfacet
facet normal 0.0 0.0 1.0
  outer loop
    vertex 78.13438743027 55.25396294917159 2.0000000000004166
    vertex 32.13364703825825 58.25396294917158 2.0000000000004166
    vertex 32.13364703825825 55.25396294917159 2.0000000000004166
  endloop
endfacet
facet normal 0.0 0.0 1.0
  outer loop
    vertex 32.13364703825825 58.25396294917158 2.0000000000004166
    vertex 78.13438743027 55.25396294917159 2.0000000000004166
    vertex 78.13438743027 58.25396294917158 2.0000000000004166
  endloop
endfacet
facet normal 0.0 0.0 1.0
  outer loop
    vertex 78.13438743027 49.25396294917152 2.0000000000004166
    vertex 32.13364703825825 52.253962949171594 2.0000000000004166
    vertex 32.13364703825825 49.25396294917152 2.0000000000004166
  endloop
endfacet
facet normal 0.0 0.0 1.0
  outer loop
    vertex 32.13364703825825 52.253962949171594 2.0000000000004166
    vertex 78.13438743027 49.25396294917152 2.0000000000004166
    vertex 78.13438743027 52.253962949171594 2.0000000000004166
  endloop
endfacet
facet normal 0.0 0.0 1.0
  outer loop
    vertex 78.13438743027 43.25396294917154 2.0000000000004166
    vertex 32.13364703825825 46.25396294917153 2.0000000000004166
    vertex 32.13364703825825 43.25396294917154 2.0000000000004166
  endloop
endfacet
facet normal 0.0 0.0 1.0
  outer loop
    vertex 32.13364703825825 46.25396294917153 2.0000000000004166
    vertex 78.13438743027 43.25396294917154 2.0000000000004166
    vertex 78.13438743027 46.25396294917153 2.0000000000004166
  endloop
endfacet
facet normal 0.0 0.0 1.0
  outer loop
    vertex 78.13438743027 37.253962949171544 2.0000000000004166
    vertex 32.13364703825825 40.253962949171544 2.0000000000004166
    vertex 32.13364703825825 37.253962949171544 2.0000000000004166
  endloop
endfacet
facet normal 0.0 0.0 1.0
  outer loop
    vertex 32.13364703825825 40.253962949171544 2.0000000000004166
    vertex 78.13438743027 37.253962949171544 2.0000000000004166
    vertex 78.13438743027 40.253962949171544 2.0000000000004166
  endloop
endfacet
facet normal 0.0 1.0 0.0
  outer loop
    vertex 24.133647038258257 70.75396294917157 2.0000000000004166
    vertex 86.13438743026998 70.75396294917157 0.5000000000004192
    vertex 24.133647038258257 70.75396294917157 0.5000000000004192
  endloop
endfacet
facet normal 0.0 1.0 0.0
  outer loop
    vertex 86.13438743026998 70.75396294917157 0.5000000000004192
    vertex 24.133647038258257 70.75396294917157 2.0000000000004166
    vertex 86.13438743026998 70.75396294917157 2.0000000000004166
  endloop
endfacet
facet normal 1.0 0.0 0.0
  outer loop
    vertex 86.13438743026998 70.75396294917157 0.5000000000004192
    vertex 86.13438743026998 28.25396294917154 2.0000000000004166
    vertex 86.13438743026998 28.25396294917154 0.5000000000004192
  endloop
endfacet
facet normal 1.0 0.0 0.0
  outer loop
    vertex 86.13438743026998 28.25396294917154 2.0000000000004166
    vertex 86.13438743026998 70.75396294917157 0.5000000000004192
    vertex 86.13438743026998 70.75396294917157 2.0000000000004166
  endloop
endfacet
facet normal -0.0 -1.0 -0.0
  outer loop
    vertex 86.13438743026998 28.25396294917154 2.0000000000004166
    vertex 24.133647038258257 28.25396294917154 0.5000000000004192
    vertex 86.13438743026998 28.25396294917154 0.5000000000004192
  endloop
endfacet
facet normal -0.0 -1.0 -0.0
  outer loop
    vertex 24.133647038258257 28.25396294917154 0.5000000000004192
    vertex 86.13438743026998 28.25396294917154 2.0000000000004166
    vertex 24.133647038258257 28.25396294917154 2.0000000000004166
  endloop
endfacet
facet normal -1.0 0.0 0.0
  outer loop
    vertex 78.13438743027 67.25396294917157 2.0000000000004166
    vertex 78.13438743027 64.25396294917157 0.5000000000004192
    vertex 78.13438743027 64.25396294917157 2.0000000000004166
  endloop
endfacet
facet normal -1.0 0.0 0.0
  outer loop
    vertex 78.13438743027 64.25396294917157 0.5000000000004192
    vertex 78.13438743027 67.25396294917157 2.0000000000004166
    vertex 78.13438743027 67.25396294917157 0.5000000000004192
  endloop
endfacet
facet normal -0.0 -1.0 -0.0
  outer loop
    vertex 78.13438743027 67.25396294917157 2.0000000000004166
    vertex 32.13364703825825 67.25396294917157 0.5000000000004192
    vertex 78.13438743027 67.25396294917157 0.5000000000004192
  endloop
endfacet
facet normal -0.0 -1.0 -0.0
  outer loop
    vertex 32.13364703825825 67.25396294917157 0.5000000000004192
    vertex 78.13438743027 67.25396294917157 2.0000000000004166
    vertex 32.13364703825825 67.25396294917157 2.0000000000004166
  endloop
endfacet
facet normal 1.0 0.0 0.0
  outer loop
    vertex 32.13364703825825 55.25396294917159 0.5000000000004192
    vertex 32.13364703825825 52.253962949171594 2.0000000000004166
    vertex 32.13364703825825 52.253962949171594 0.5000000000004192
  endloop
endfacet
facet normal 1.0 0.0 0.0
  outer loop
    vertex 32.13364703825825 52.253962949171594 2.0000000000004166
    vertex 32.13364703825825 55.25396294917159 0.5000000000004192
    vertex 32.13364703825825 55.25396294917159 2.0000000000004166
  endloop
endfacet
facet normal 0.0 1.0 0.0
  outer loop
    vertex 32.13364703825825 58.25396294917158 2.0000000000004166
    vertex 78.13438743027 58.25396294917158 0.5000000000004192
    vertex 32.13364703825825 58.25396294917158 0.5000000000004192
  endloop
endfacet
facet normal 0.0 1.0 0.0
  outer loop
    vertex 78.13438743027 58.25396294917158 0.5000000000004192
    vertex 32.13364703825825 58.25396294917158 2.0000000000004166
    vertex 78.13438743027 58.25396294917158 2.0000000000004166
  endloop
endfacet
facet normal 1.0 0.0 0.0
  outer loop
    vertex 32.13364703825825 49.25396294917152 0.5000000000004192
    vertex 32.13364703825825 46.25396294917153 2.0000000000004166
    vertex 32.13364703825825 46.25396294917153 0.5000000000004192
  endloop
endfacet
facet normal 1.0 0.0 0.0
  outer loop
    vertex 32.13364703825825 46.25396294917153 2.0000000000004166
    vertex 32.13364703825825 49.25396294917152 0.5000000000004192
    vertex 32.13364703825825 49.25396294917152 2.0000000000004166
  endloop
endfacet
facet normal 1.0 0.0 0.0
  outer loop
    vertex 32.13364703825825 67.25396294917157 0.5000000000004192
    vertex 32.13364703825825 64.25396294917157 2.0000000000004166
    vertex 32.13364703825825 64.25396294917157 0.5000000000004192
  endloop
endfacet
facet normal 1.0 0.0 0.0
  outer loop
    vertex 32.13364703825825 64.25396294917157 2.0000000000004166
    vertex 32.13364703825825 67.25396294917157 0.5000000000004192
    vertex 32.13364703825825 67.25396294917157 2.0000000000004166
  endloop
endfacet
facet normal -0.0 -1.0 -0.0
  outer loop
    vertex 78.13438743027 61.25396294917158 2.0000000000004166
    vertex 32.13364703825825 61.25396294917158 0.5000000000004249
    vertex 78.13438743027 61.25396294917158 0.5000000000004192
  endloop
endfacet
facet normal -0.0 -1.0 -0.0
  outer loop
    vertex 32.13364703825825 61.25396294917158 0.5000000000004249
    vertex 78.13438743027 61.25396294917158 2.0000000000004166
    vertex 32.13364703825825 61.25396294917158 2.0000000000004277
  endloop
endfacet
facet normal 0.0 1.0 0.0
  outer loop
    vertex 32.13364703825825 52.253962949171594 2.0000000000004166
    vertex 78.13438743027 52.253962949171594 0.5000000000004192
    vertex 32.13364703825825 52.253962949171594 0.5000000000004192
  endloop
endfacet
facet normal 0.0 1.0 0.0
  outer loop
    vertex 78.13438743027 52.253962949171594 0.5000000000004192
    vertex 32.13364703825825 52.253962949171594 2.0000000000004166
    vertex 78.13438743027 52.253962949171594 2.0000000000004166
  endloop
endfacet
facet normal 0.0 1.0 0.0
  outer loop
    vertex 32.13364703825825 64.25396294917157 2.0000000000004166
    vertex 78.13438743027 64.25396294917157 0.5000000000004192
    vertex 32.13364703825825 64.25396294917157 0.5000000000004192
  endloop
endfacet
facet normal 0.0 1.0 0.0
  outer loop
    vertex 78.13438743027 64.25396294917157 0.5000000000004192
    vertex 32.13364703825825 64.25396294917157 2.0000000000004166
    vertex 78.13438743027 64.25396294917157 2.0000000000004166
  endloop
endfacet
facet normal -1.0 0.0 0.0
  outer loop
    vertex 78.13438743027 49.25396294917152 2.0000000000004166
    vertex 78.13438743027 46.25396294917153 0.5000000000004192
    vertex 78.13438743027 46.25396294917153 2.0000000000004166
  endloop
endfacet
facet normal -1.0 0.0 0.0
  outer loop
    vertex 78.13438743027 46.25396294917153 0.5000000000004192
    vertex 78.13438743027 49.25396294917152 2.0000000000004166
    vertex 78.13438743027 49.25396294917152 0.5000000000004192
  endloop
endfacet
facet normal -0.0 -1.0 -0.0
  outer loop
    vertex 78.13438743027 49.25396294917152 2.0000000000004166
    vertex 32.13364703825825 49.25396294917152 0.5000000000004192
    vertex 78.13438743027 49.25396294917152 0.5000000000004192
  endloop
endfacet
facet normal -0.0 -1.0 -0.0
  outer loop
    vertex 32.13364703825825 49.25396294917152 0.5000000000004192
    vertex 78.13438743027 49.25396294917152 2.0000000000004166
    vertex 32.13364703825825 49.25396294917152 2.0000000000004166
  endloop
endfacet
facet normal 1.0 0.0 0.0
  outer loop
    vertex 32.13364703825825 61.25396294917158 0.5000000000004249
    vertex 32.13364703825825 58.25396294917158 2.0000000000004166
    vertex 32.13364703825825 58.25396294917158 0.5000000000004192
  endloop
endfacet
facet normal 1.0 0.0 0.0
  outer loop
    vertex 32.13364703825825 58.25396294917158 2.0000000000004166
    vertex 32.13364703825825 61.25396294917158 0.5000000000004249
    vertex 32.13364703825825 61.25396294917158 2.0000000000004277
  endloop
endfacet
facet normal -1.0 0.0 0.0
  outer loop
    vertex 78.13438743027 55.25396294917159 2.0000000000004166
    vertex 78.13438743027 52.253962949171594 0.5000000000004192
    vertex 78.13438743027 52.253962949171594 2.0000000000004166
  endloop
endfacet
facet normal -1.0 0.0 0.0
  outer loop
    vertex 78.13438743027 52.253962949171594 0.5000000000004192
    vertex 78.13438743027 55.25396294917159 2.0000000000004166
    vertex 78.13438743027 55.25396294917159 0.5000000000004192
  endloop
endfacet
facet normal -1.0 0.0 0.0
  outer loop
    vertex 78.13438743027 61.25396294917158 2.0000000000004166
    vertex 78.13438743027 58.25396294917158 0.5000000000004192
    vertex 78.13438743027 58.25396294917158 2.0000000000004166
  endloop
endfacet
facet normal -1.0 0.0 0.0
  outer loop
    vertex 78.13438743027 58.25396294917158 0.5000000000004192
    vertex 78.13438743027 61.25396294917158 2.0000000000004166
    vertex 78.13438743027 61.25396294917158 0.5000000000004192
  endloop
endfacet
facet normal -0.0 -1.0 -0.0
  outer loop
    vertex 78.13438743027 55.25396294917159 2.0000000000004166
    vertex 32.13364703825825 55.25396294917159 0.5000000000004192
    vertex 78.13438743027 55.25396294917159 0.5000000000004192
  endloop
endfacet
facet normal -0.0 -1.0 -0.0
  outer loop
    vertex 32.13364703825825 55.25396294917159 0.5000000000004192
    vertex 78.13438743027 55.25396294917159 2.0000000000004166
    vertex 32.13364703825825 55.25396294917159 2.0000000000004166
  endloop
endfacet
facet normal 1.0 0.0 0.0
  outer loop
    vertex 32.13364703825825 43.25396294917154 0.5000000000004192
    vertex 32.13364703825825 40.253962949171544 2.0000000000004166
    vertex 32.13364703825825 40.253962949171544 0.5000000000004192
  endloop
endfacet
facet normal 1.0 0.0 0.0
  outer loop
    vertex 32.13364703825825 40.253962949171544 2.0000000000004166
    vertex 32.13364703825825 43.25396294917154 0.5000000000004192
    vertex 32.13364703825825 43.25396294917154 2.0000000000004166
  endloop
endfacet
facet normal 1.0 0.0 0.0
  outer loop
    vertex 32.13364703825825 37.253962949171544 0.5000000000004192
    vertex 32.13364703825825 34.25396294917153 2.0000000000004166
    vertex 32.13364703825825 34.25396294917153 0.5000000000004192
  endloop
endfacet
facet normal 1.0 0.0 0.0
  outer loop
    vertex 32.13364703825825 34.25396294917153 2.0000000000004166
    vertex 32.13364703825825 37.253962949171544 0.5000000000004192
    vertex 32.13364703825825 37.253962949171544 2.0000000000004166
  endloop
endfacet
facet normal 0.0 1.0 0.0
  outer loop
    vertex 32.13364703825825 46.25396294917153 2.0000000000004166
    vertex 78.13438743027 46.25396294917153 0.5000000000004192
    vertex 32.13364703825825 46.25396294917153 0.5000000000004192
  endloop
endfacet
facet normal 0.0 1.0 0.0
  outer loop
    vertex 78.13438743027 46.25396294917153 0.5000000000004192
    vertex 32.13364703825825 46.25396294917153 2.0000000000004166
    vertex 78.13438743027 46.25396294917153 2.0000000000004166
  endloop
endfacet
facet normal -0.0 -1.0 -0.0
  outer loop
    vertex 78.13438743027 37.253962949171544 2.0000000000004166
    vertex 32.13364703825825 37.253962949171544 0.5000000000004192
    vertex 78.13438743027 37.253962949171544 0.5000000000004192
  endloop
endfacet
facet normal -0.0 -1.0 -0.0
  outer loop
    vertex 32.13364703825825 37.253962949171544 0.5000000000004192
    vertex 78.13438743027 37.253962949171544 2.0000000000004166
    vertex 32.13364703825825 37.253962949171544 2.0000000000004166
  endloop
endfacet
facet normal -1.0 0.0 0.0
  outer loop
    vertex 78.13438743027 37.253962949171544 2.0000000000004166
    vertex 78.13438743027 34.25396294917153 0.5000000000004192
    vertex 78.13438743027 34.25396294917153 2.0000000000004166
  endloop
endfacet
facet normal -1.0 0.0 0.0
  outer loop
    vertex 78.13438743027 34.25396294917153 0.5000000000004192
    vertex 78.13438743027 37.253962949171544 2.0000000000004166
    vertex 78.13438743027 37.253962949171544 0.5000000000004192
  endloop
endfacet
facet normal 0.0 1.0 0.0
  outer loop
    vertex 32.13364703825825 34.25396294917153 2.0000000000004166
    vertex 78.13438743027 34.25396294917153 0.5000000000004192
    vertex 32.13364703825825 34.25396294917153 0.5000000000004192
  endloop
endfacet
facet normal 0.0 1.0 0.0
  outer loop
    vertex 78.13438743027 34.25396294917153 0.5000000000004192
    vertex 32.13364703825825 34.25396294917153 2.0000000000004166
    vertex 78.13438743027 34.25396294917153 2.0000000000004166
  endloop
endfacet
facet normal -1.0 0.0 0.0
  outer loop
    vertex 78.13438743027 43.25396294917154 2.0000000000004166
    vertex 78.13438743027 40.253962949171544 0.5000000000004192
    vertex 78.13438743027 40.253962949171544 2.0000000000004166
  endloop
endfacet
facet normal -1.0 0.0 0.0
  outer loop
    vertex 78.13438743027 40.253962949171544 0.5000000000004192
    vertex 78.13438743027 43.25396294917154 2.0000000000004166
    vertex 78.13438743027 43.25396294917154 0.5000000000004192
  endloop
endfacet
facet normal -0.0 -1.0 -0.0
  outer loop
    vertex 78.13438743027 43.25396294917154 2.0000000000004166
    vertex 32.13364703825825 43.25396294917154 0.5000000000004192
    vertex 78.13438743027 43.25396294917154 0.5000000000004192
  endloop
endfacet
facet normal -0.0 -1.0 -0.0
  outer loop
    vertex 32.13364703825825 43.25396294917154 0.5000000000004192
    vertex 78.13438743027 43.25396294917154 2.0000000000004166
    vertex 32.13364703825825 43.25396294917154 2.0000000000004166
  endloop
endfacet
facet normal 0.0 1.0 0.0
  outer loop
    vertex 32.13364703825825 40.253962949171544 2.0000000000004166
    vertex 78.13438743027 40.253962949171544 0.5000000000004192
    vertex 32.13364703825825 40.253962949171544 0.5000000000004192
  endloop
endfacet
facet normal 0.0 1.0 0.0
  outer loop
    vertex 78.13438743027 40.253962949171544 0.5000000000004192
    vertex 32.13364703825825 40.253962949171544 2.0000000000004166
    vertex 78.13438743027 40.253962949171544 2.0000000000004166
  endloop
endfacet
facet normal 0.0 0.0 -1.0
  outer loop
    vertex 19.13364703825826 44.25396294917154 0.5000000000004192
    vertex 21.133647038258257 46.25396294917154 0.5000000000004192
    vertex 24.133647038258257 44.25396294917154 0.5000000000004192
  endloop
endfacet
facet normal 0.0 0.0 -1.0
  outer loop
    vertex 21.133647038258257 46.25396294917154 0.5000000000004192
    vertex 19.13364703825826 44.25396294917154 0.5000000000004192
    vertex 21.133647038258257 52.753962949171544 0.5000000000004192
  endloop
endfacet
facet normal 0.0 0.0 -1.0
  outer loop
    vertex 21.133647038258257 46.25396294917154 0.5000000000004192
    vertex 21.133647038258257 52.753962949171544 0.5000000000004192
    vertex 21.133647038258257 51.25396294917155 0.5000000000004192
  endloop
endfacet
facet normal 0.0 0.0 -1.0
  outer loop
    vertex 21.133647038258257 46.25396294917154 0.5000000000004192
    vertex 21.133647038258257 51.25396294917155 0.5000000000004192
    vertex 21.133647038258257 47.75396294917154 0.5000000000004192
  endloop
endfacet
facet normal 0.0 0.0 -1.0
  outer loop
    vertex 24.133647038258257 44.25396294917154 0.5000000000004192
    vertex 21.133647038258257 46.25396294917154 0.5000000000004192
    vertex 24.133647038258257 46.25396294917154 0.5000000000004192
  endloop
endfacet
facet normal 0.0 0.0 -1.0
  outer loop
    vertex 24.133647038258257 51.25396294917155 0.5000000000004192
    vertex 21.133647038258257 47.75396294917154 0.5000000000004192
    vertex 21.133647038258257 51.25396294917155 0.5000000000004192
  endloop
endfacet
facet normal 0.0 0.0 -1.0
  outer loop
    vertex 21.133647038258257 47.75396294917154 0.5000000000004192
    vertex 24.133647038258257 51.25396294917155 0.5000000000004192
    vertex 24.133647038258257 47.75396294917154 0.5000000000004192
  endloop
endfacet
facet normal 0.0 0.0 -1.0
  outer loop
    vertex 19.13364703825826 54.75396294917155 0.5000000000004192
    vertex 21.133647038258257 52.753962949171544 0.5000000000004192
    vertex 19.13364703825826 44.25396294917154 0.5000000000004192
  endloop
endfacet
facet normal 0.0 0.0 -1.0
  outer loop
    vertex 21.133647038258257 52.753962949171544 0.5000000000004192
    vertex 19.13364703825826 54.75396294917155 0.5000000000004192
    vertex 24.133647038258257 54.75396294917155 0.5000000000004192
  endloop
endfacet
facet normal 0.0 0.0 -1.0
  outer loop
    vertex 21.133647038258257 52.753962949171544 0.5000000000004192
    vertex 24.133647038258257 54.75396294917155 0.5000000000004192
    vertex 24.133647038258257 52.753962949171544 0.5000000000004192
  endloop
endfacet
facet normal 0.0 0.0 -1.0
  outer loop
    vertex 24.133647038258257 70.75396294917157 0.5000000000004192
    vertex 32.13364703825825 67.25396294917157 0.5000000000004192
    vertex 24.133647038258257 54.75396294917155 0.5000000000004192
  endloop
endfacet
facet normal 0.0 0.0 -1.0
  outer loop
    vertex 32.13364703825825 67.25396294917157 0.5000000000004192
    vertex 24.133647038258257 70.75396294917157 0.5000000000004192
    vertex 86.13438743026998 70.75396294917157 0.5000000000004192
  endloop
endfacet
facet normal 0.0 0.0 -1.0
  outer loop
    vertex 24.133647038258257 54.75396294917155 0.5000000000004192
    vertex 32.13364703825825 67.25396294917157 0.5000000000004192
    vertex 24.133647038258257 52.753962949171544 0.5000000000004192
  endloop
endfacet
facet normal 0.0 0.0 -1.0
  outer loop
    vertex 24.133647038258257 52.753962949171544 0.5000000000004192
    vertex 32.13364703825825 67.25396294917157 0.5000000000004192
    vertex 24.133647038258257 51.25396294917155 0.5000000000004192
  endloop
endfacet
facet normal 0.0 0.0 -1.0
  outer loop
    vertex 24.133647038258257 51.25396294917155 0.5000000000004192
    vertex 32.13364703825825 67.25396294917157 0.5000000000004192
    vertex 24.133647038258257 47.75396294917154 0.5000000000004192
  endloop
endfacet
facet normal 0.0 0.0 -1.0
  outer loop
    vertex 24.133647038258257 47.75396294917154 0.5000000000004192
    vertex 32.13364703825825 67.25396294917157 0.5000000000004192
    vertex 24.133647038258257 46.25396294917154 0.5000000000004192
  endloop
endfacet
facet normal 0.0 0.0 -1.0
  outer loop
    vertex 24.133647038258257 46.25396294917154 0.5000000000004192
    vertex 32.13364703825825 67.25396294917157 0.5000000000004192
    vertex 24.133647038258257 44.25396294917154 0.5000000000004192
  endloop
endfacet
facet normal 0.0 0.0 -1.0
  outer loop
    vertex 24.133647038258257 44.25396294917154 0.5000000000004192
    vertex 32.13364703825825 67.25396294917157 0.5000000000004192
    vertex 24.133647038258257 28.25396294917154 0.5000000000004192
  endloop
endfacet
facet normal 0.0 0.0 -1.0
  outer loop
    vertex 32.13364703825825 67.25396294917157 0.5000000000004192
    vertex 86.13438743026998 70.75396294917157 0.5000000000004192
    vertex 78.13438743027 67.25396294917157 0.5000000000004192
  endloop
endfacet
facet normal 0.0 0.0 -1.0
  outer loop
    vertex 78.13438743027 67.25396294917157 0.5000000000004192
    vertex 86.13438743026998 70.75396294917157 0.5000000000004192
    vertex 78.13438743027 64.25396294917157 0.5000000000004192
  endloop
endfacet
facet normal 0.0 0.0 -1.0
  outer loop
    vertex 78.13438743027 64.25396294917157 0.5000000000004192
    vertex 86.13438743026998 70.75396294917157 0.5000000000004192
    vertex 78.13438743027 61.25396294917158 0.5000000000004192
  endloop
endfacet
facet normal 0.0 0.0 -1.0
  outer loop
    vertex 78.13438743027 61.25396294917158 0.5000000000004192
    vertex 86.13438743026998 70.75396294917157 0.5000000000004192
    vertex 78.13438743027 58.25396294917158 0.5000000000004192
  endloop
endfacet
facet normal 0.0 0.0 -1.0
  outer loop
    vertex 78.13438743027 58.25396294917158 0.5000000000004192
    vertex 86.13438743026998 70.75396294917157 0.5000000000004192
    vertex 78.13438743027 55.25396294917159 0.5000000000004192
  endloop
endfacet
facet normal 0.0 0.0 -1.0
  outer loop
    vertex 78.13438743027 55.25396294917159 0.5000000000004192
    vertex 86.13438743026998 70.75396294917157 0.5000000000004192
    vertex 78.13438743027 52.253962949171594 0.5000000000004192
  endloop
endfacet
facet normal 0.0 0.0 -1.0
  outer loop
    vertex 78.13438743027 52.253962949171594 0.5000000000004192
    vertex 86.13438743026998 70.75396294917157 0.5000000000004192
    vertex 78.13438743027 49.25396294917152 0.5000000000004192
  endloop
endfacet
facet normal 0.0 0.0 -1.0
  outer loop
    vertex 78.13438743027 49.25396294917152 0.5000000000004192
    vertex 86.13438743026998 70.75396294917157 0.5000000000004192
    vertex 78.13438743027 46.25396294917153 0.5000000000004192
  endloop
endfacet
facet normal 0.0 0.0 -1.0
  outer loop
    vertex 78.13438743027 46.25396294917153 0.5000000000004192
    vertex 86.13438743026998 70.75396294917157 0.5000000000004192
    vertex 78.13438743027 43.25396294917154 0.5000000000004192
  endloop
endfacet
facet normal 0.0 0.0 -1.0
  outer loop
    vertex 78.13438743027 43.25396294917154 0.5000000000004192
    vertex 86.13438743026998 70.75396294917157 0.5000000000004192
    vertex 78.13438743027 40.253962949171544 0.5000000000004192
  endloop
endfacet
facet normal 0.0 0.0 -1.0
  outer loop
    vertex 78.13438743027 40.253962949171544 0.5000000000004192
    vertex 86.13438743026998 70.75396294917157 0.5000000000004192
    vertex 78.13438743027 37.253962949171544 0.5000000000004192
  endloop
endfacet
facet normal 0.0 0.0 -1.0
  outer loop
    vertex 78.13438743027 37.253962949171544 0.5000000000004192
    vertex 86.13438743026998 70.75396294917157 0.5000000000004192
    vertex 78.13438743027 34.25396294917153 0.5000000000004192
  endloop
endfacet
facet normal 0.0 0.0 -1.0
  outer loop
    vertex 24.133647038258257 28.25396294917154 0.5000000000004192
    vertex 32.13364703825825 34.25396294917153 0.5000000000004192
    vertex 86.13438743026998 28.25396294917154 0.5000000000004192
  endloop
endfacet
facet normal 0.0 0.0 -1.0
  outer loop
    vertex 32.13364703825825 34.25396294917153 0.5000000000004192
    vertex 24.133647038258257 28.25396294917154 0.5000000000004192
    vertex 32.13364703825825 67.25396294917157 0.5000000000004192
  endloop
endfacet
facet normal 0.0 0.0 -1.0
  outer loop
    vertex 32.13364703825825 34.25396294917153 0.5000000000004192
    vertex 32.13364703825825 67.25396294917157 0.5000000000004192
    vertex 32.13364703825825 64.25396294917157 0.5000000000004192
  endloop
endfacet
facet normal 0.0 0.0 -1.0
  outer loop
    vertex 32.13364703825825 34.25396294917153 0.5000000000004192
    vertex 32.13364703825825 64.25396294917157 0.5000000000004192
    vertex 32.13364703825825 61.25396294917158 0.5000000000004249
  endloop
endfacet
facet normal 0.0 0.0 -1.0
  outer loop
    vertex 32.13364703825825 34.25396294917153 0.5000000000004192
    vertex 32.13364703825825 61.25396294917158 0.5000000000004249
    vertex 32.13364703825825 58.25396294917158 0.5000000000004192
  endloop
endfacet
facet normal 0.0 0.0 -1.0
  outer loop
    vertex 32.13364703825825 34.25396294917153 0.5000000000004192
    vertex 32.13364703825825 58.25396294917158 0.5000000000004192
    vertex 32.13364703825825 55.25396294917159 0.5000000000004192
  endloop
endfacet
facet normal 0.0 0.0 -1.0
  outer loop
    vertex 32.13364703825825 34.25396294917153 0.5000000000004192
    vertex 32.13364703825825 55.25396294917159 0.5000000000004192
    vertex 32.13364703825825 52.253962949171594 0.5000000000004192
  endloop
endfacet
facet normal 0.0 0.0 -1.0
  outer loop
    vertex 32.13364703825825 34.25396294917153 0.5000000000004192
    vertex 32.13364703825825 52.253962949171594 0.5000000000004192
    vertex 32.13364703825825 49.25396294917152 0.5000000000004192
  endloop
endfacet
facet normal 0.0 0.0 -1.0
  outer loop
    vertex 32.13364703825825 34.25396294917153 0.5000000000004192
    vertex 32.13364703825825 49.25396294917152 0.5000000000004192
    vertex 32.13364703825825 46.25396294917153 0.5000000000004192
  endloop
endfacet
facet normal 0.0 0.0 -1.0
  outer loop
    vertex 32.13364703825825 34.25396294917153 0.5000000000004192
    vertex 32.13364703825825 46.25396294917153 0.5000000000004192
    vertex 32.13364703825825 43.25396294917154 0.5000000000004192
  endloop
endfacet
facet normal 0.0 0.0 -1.0
  outer loop
    vertex 32.13364703825825 34.25396294917153 0.5000000000004192
    vertex 32.13364703825825 43.25396294917154 0.5000000000004192
    vertex 32.13364703825825 40.253962949171544 0.5000000000004192
  endloop
endfacet
facet normal 0.0 0.0 -1.0
  outer loop
    vertex 32.13364703825825 34.25396294917153 0.5000000000004192
    vertex 32.13364703825825 40.253962949171544 0.5000000000004192
    vertex 32.13364703825825 37.253962949171544 0.5000000000004192
  endloop
endfacet
facet normal 0.0 0.0 -1.0
  outer loop
    vertex 86.13438743026998 28.25396294917154 0.5000000000004192
    vertex 32.13364703825825 34.25396294917153 0.5000000000004192
    vertex 78.13438743027 34.25396294917153 0.5000000000004192
  endloop
endfacet
facet normal 0.0 0.0 -1.0
  outer loop
    vertex 86.13438743026998 28.25396294917154 0.5000000000004192
    vertex 78.13438743027 34.25396294917153 0.5000000000004192
    vertex 86.13438743026998 70.75396294917157 0.5000000000004192
  endloop
endfacet
facet normal 0.0 0.0 -1.0
  outer loop
    vertex 78.13438743027 40.253962949171544 0.5000000000004192
    vertex 32.13364703825825 37.253962949171544 0.5000000000004192
    vertex 32.13364703825825 40.253962949171544 0.5000000000004192
  endloop
endfacet
facet normal 0.0 0.0 -1.0
  outer loop
    vertex 32.13364703825825 37.253962949171544 0.5000000000004192
    vertex 78.13438743027 40.253962949171544 0.5000000000004192
    vertex 78.13438743027 37.253962949171544 0.5000000000004192
  endloop
endfacet
facet normal 0.0 0.0 -1.0
  outer loop
    vertex 78.13438743027 46.25396294917153 0.5000000000004192
    vertex 32.13364703825825 43.25396294917154 0.5000000000004192
    vertex 32.13364703825825 46.25396294917153 0.5000000000004192
  endloop
endfacet
facet normal 0.0 0.0 -1.0
  outer loop
    vertex 32.13364703825825 43.25396294917154 0.5000000000004192
    vertex 78.13438743027 46.25396294917153 0.5000000000004192
    vertex 78.13438743027 43.25396294917154 0.5000000000004192
  endloop
endfacet
facet normal 0.0 0.0 -1.0
  outer loop
    vertex 78.13438743027 52.253962949171594 0.5000000000004192
    vertex 32.13364703825825 49.25396294917152 0.5000000000004192
    vertex 32.13364703825825 52.253962949171594 0.5000000000004192
  endloop
endfacet
facet normal 0.0 0.0 -1.0
  outer loop
    vertex 32.13364703825825 49.25396294917152 0.5000000000004192
    vertex 78.13438743027 52.253962949171594 0.5000000000004192
    vertex 78.13438743027 49.25396294917152 0.5000000000004192
  endloop
endfacet
facet normal 0.0 0.0 -1.0
  outer loop
    vertex 78.13438743027 58.25396294917158 0.5000000000004192
    vertex 32.13364703825825 55.25396294917159 0.5000000000004192
    vertex 32.13364703825825 58.25396294917158 0.5000000000004192
  endloop
endfacet
facet normal 0.0 0.0 -1.0
  outer loop
    vertex 32.13364703825825 55.25396294917159 0.5000000000004192
    vertex 78.13438743027 58.25396294917158 0.5000000000004192
    vertex 78.13438743027 55.25396294917159 0.5000000000004192
  endloop
endfacet
facet normal 0.0 0.0 -1.0
  outer loop
    vertex 78.13438743027 64.25396294917157 0.5000000000004192
    vertex 32.13364703825825 61.25396294917158 0.5000000000004249
    vertex 32.13364703825825 64.25396294917157 0.5000000000004192
  endloop
endfacet
facet normal 0.0 0.0 -1.0
  outer loop
    vertex 32.13364703825825 61.25396294917158 0.5000000000004249
    vertex 78.13438743027 64.25396294917157 0.5000000000004192
    vertex 78.13438743027 61.25396294917158 0.5000000000004192
  endloop
endfacet
facet normal -1.0 0.0 0.0
  outer loop
    vertex 24.133647038258257 44.25396294917154 2.0000000000004166
    vertex 24.133647038258257 28.25396294917154 0.5000000000004192
    vertex 24.133647038258257 28.25396294917154 2.0000000000004166
  endloop
endfacet
facet normal -1.0 0.0 0.0
  outer loop
    vertex 24.133647038258257 28.25396294917154 0.5000000000004192
    vertex 24.133647038258257 44.25396294917154 2.0000000000004166
    vertex 24.133647038258257 44.25396294917154 0.5000000000004192
  endloop
endfacet
facet normal -1.0 0.0 0.0
  outer loop
    vertex 24.133647038258257 70.75396294917157 2.0000000000004166
    vertex 24.133647038258257 54.75396294917155 0.5000000000004192
    vertex 24.133647038258257 54.75396294917155 2.0000000000004166
  endloop
endfacet
facet normal -1.0 0.0 0.0
  outer loop
    vertex 24.133647038258257 54.75396294917155 0.5000000000004192
    vertex 24.133647038258257 70.75396294917157 2.0000000000004166
    vertex 24.133647038258257 70.75396294917157 0.5000000000004192
  endloop
endfacet
facet normal -1.0 0.0 0.0
  outer loop
    vertex 19.13364703825826 54.75396294917155 2.0000000000004166
    vertex 19.13364703825826 44.25396294917154 0.5000000000004192
    vertex 19.13364703825826 44.25396294917154 2.0000000000004166
  endloop
endfacet
facet normal -1.0 0.0 0.0
  outer loop
    vertex 19.13364703825826 44.25396294917154 0.5000000000004192
    vertex 19.13364703825826 54.75396294917155 2.0000000000004166
    vertex 19.13364703825826 54.75396294917155 0.5000000000004192
  endloop
endfacet
facet normal 0.0 1.0 0.0
  outer loop
    vertex 19.13364703825826 54.75396294917155 2.0000000000004166
    vertex 24.133647038258257 54.75396294917155 0.5000000000004192
    vertex 19.13364703825826 54.75396294917155 0.5000000000004192
  endloop
endfacet
facet normal 0.0 1.0 0.0
  outer loop
    vertex 24.133647038258257 54.75396294917155 0.5000000000004192
    vertex 19.13364703825826 54.75396294917155 2.0000000000004166
    vertex 24.133647038258257 54.75396294917155 2.0000000000004166
  endloop
endfacet
facet normal 0.0 -1.0 0.0
  outer loop
    vertex 24.133647038258257 44.25396294917154 2.0000000000004166
    vertex 19.13364703825826 44.25396294917154 0.5000000000004192
    vertex 24.133647038258257 44.25396294917154 0.5000000000004192
  endloop
endfacet
facet normal 0.0 -1.0 0.0
  outer loop
    vertex 19.13364703825826 44.25396294917154 0.5000000000004192
    vertex 24.133647038258257 44.25396294917154 2.0000000000004166
    vertex 19.13364703825826 44.25396294917154 2.0000000000004166
  endloop
endfacet
facet normal 0.0 1.0 0.0
  outer loop
    vertex 21.133647038258257 51.25396294917155 2.0000000000004166
    vertex 24.133647038258257 51.25396294917155 0.5000000000004192
    vertex 21.133647038258257 51.25396294917155 0.5000000000004192
  endloop
endfacet
facet normal 0.0 1.0 0.0
  outer loop
    vertex 24.133647038258257 51.25396294917155 0.5000000000004192
    vertex 21.133647038258257 51.25396294917155 2.0000000000004166
    vertex 24.133647038258257 51.25396294917155 2.0000000000004166
  endloop
endfacet
facet normal -1.0 0.0 0.0
  outer loop
    vertex 24.133647038258257 52.753962949171544 2.0000000000004166
    vertex 24.133647038258257 51.25396294917155 0.5000000000004192
    vertex 24.133647038258257 51.25396294917155 2.0000000000004166
  endloop
endfacet
facet normal -1.0 0.0 0.0
  outer loop
    vertex 24.133647038258257 51.25396294917155 0.5000000000004192
    vertex 24.133647038258257 52.753962949171544 2.0000000000004166
    vertex 24.133647038258257 52.753962949171544 0.5000000000004192
  endloop
endfacet
facet normal -0.0 -1.0 -0.0
  outer loop
    vertex 24.133647038258257 52.753962949171544 2.0000000000004166
    vertex 21.133647038258257 52.753962949171544 0.5000000000004192
    vertex 24.133647038258257 52.753962949171544 0.5000000000004192
  endloop
endfacet
facet normal -0.0 -1.0 -0.0
  outer loop
    vertex 21.133647038258257 52.753962949171544 0.5000000000004192
    vertex 24.133647038258257 52.753962949171544 2.0000000000004166
    vertex 21.133647038258257 52.753962949171544 2.0000000000004166
  endloop
endfacet
facet normal 1.0 0.0 0.0
  outer loop
    vertex 21.133647038258257 52.753962949171544 0.5000000000004192
    vertex 21.133647038258257 51.25396294917155 2.0000000000004166
    vertex 21.133647038258257 51.25396294917155 0.5000000000004192
  endloop
endfacet
facet normal 1.0 0.0 0.0
  outer loop
    vertex 21.133647038258257 51.25396294917155 2.0000000000004166
    vertex 21.133647038258257 52.753962949171544 0.5000000000004192
    vertex 21.133647038258257 52.753962949171544 2.0000000000004166
  endloop
endfacet
facet normal -1.0 0.0 0.0
  outer loop
    vertex 24.133647038258257 47.75396294917154 2.0000000000004166
    vertex 24.133647038258257 46.25396294917154 0.5000000000004192
    vertex 24.133647038258257 46.25396294917154 2.0000000000004166
  endloop
endfacet
facet normal -1.0 0.0 0.0
  outer loop
    vertex 24.133647038258257 46.25396294917154 0.5000000000004192
    vertex 24.133647038258257 47.75396294917154 2.0000000000004166
    vertex 24.133647038258257 47.75396294917154 0.5000000000004192
  endloop
endfacet
facet normal -0.0 -1.0 -0.0
  outer loop
    vertex 24.133647038258257 47.75396294917154 2.0000000000004166
    vertex 21.133647038258257 47.75396294917154 0.5000000000004192
    vertex 24.133647038258257 47.75396294917154 0.5000000000004192
  endloop
endfacet
facet normal -0.0 -1.0 -0.0
  outer loop
    vertex 21.133647038258257 47.75396294917154 0.5000000000004192
    vertex 24.133647038258257 47.75396294917154 2.0000000000004166
    vertex 21.133647038258257 47.75396294917154 2.0000000000004166
  endloop
endfacet
facet normal 1.0 0.0 0.0
  outer loop
    vertex 21.133647038258257 47.75396294917154 0.5000000000004192
    vertex 21.133647038258257 46.25396294917154 2.0000000000004166
    vertex 21.133647038258257 46.25396294917154 0.5000000000004192
  endloop
endfacet
facet normal 1.0 0.0 0.0
  outer loop
    vertex 21.133647038258257 46.25396294917154 2.0000000000004166
    vertex 21.133647038258257 47.75396294917154 0.5000000000004192
    vertex 21.133647038258257 47.75396294917154 2.0000000000004166
  endloop
endfacet
facet normal 0.0 1.0 0.0
  outer loop
    vertex 21.133647038258257 46.25396294917154 2.0000000000004166
    vertex 24.133647038258257 46.25396294917154 0.5000000000004192
    vertex 21.133647038258257 46.25396294917154 0.5000000000004192
  endloop
endfacet
facet normal 0.0 1.0 0.0
  outer loop
    vertex 24.133647038258257 46.25396294917154 0.5000000000004192
    vertex 21.133647038258257 46.25396294917154 2.0000000000004166
    vertex 24.133647038258257 46.25396294917154 2.0000000000004166
  endloop
endfacet
endsolid Radiator fan 06
