solid Radiator fan 06
facet normal 0.0 0.0 1.0
  outer loop
    vertex 1626.1672277342989 55.23676113618707 0.49999999999995115
    vertex 1628.1672277342989 53.23676113618708 0.49999999999995115
    vertex 1631.1672277342989 55.23676113618707 0.49999999999995115
  endloop
endfacet
facet normal 0.0 0.0 1.0
  outer loop
    vertex 1628.1672277342989 53.23676113618708 0.49999999999995115
    vertex 1626.1672277342989 55.23676113618707 0.49999999999995115
    vertex 1628.1672277342989 46.73676113618706 0.49999999999995115
  endloop
endfacet
facet normal 0.0 0.0 1.0
  outer loop
    vertex 1628.1672277342989 53.23676113618708 0.49999999999995115
    vertex 1628.1672277342989 46.73676113618706 0.49999999999995115
    vertex 1628.1672277342989 48.23676113618704 0.49999999999995115
  endloop
endfacet
facet normal 0.0 0.0 1.0
  outer loop
    vertex 1628.1672277342989 53.23676113618708 0.49999999999995115
    vertex 1628.1672277342989 48.23676113618704 0.49999999999995115
    vertex 1628.1672277342989 51.736761136187056 0.49999999999995115
  endloop
endfacet
facet normal 0.0 0.0 1.0
  outer loop
    vertex 1631.1672277342989 55.23676113618707 0.49999999999995115
    vertex 1628.1672277342989 53.23676113618708 0.49999999999995115
    vertex 1631.1672277342989 53.23676113618708 0.49999999999995115
  endloop
endfacet
facet normal 0.0 0.0 1.0
  outer loop
    vertex 1631.1672277342989 48.23676113618704 0.49999999999995115
    vertex 1628.1672277342989 51.736761136187056 0.49999999999995115
    vertex 1628.1672277342989 48.23676113618704 0.49999999999995115
  endloop
endfacet
facet normal 0.0 0.0 1.0
  outer loop
    vertex 1628.1672277342989 51.736761136187056 0.49999999999995115
    vertex 1631.1672277342989 48.23676113618704 0.49999999999995115
    vertex 1631.1672277342989 51.736761136187056 0.49999999999995115
  endloop
endfacet
facet normal 0.0 0.0 1.0
  outer loop
    vertex 1626.1672277342989 44.73676113618702 0.49999999999995115
    vertex 1628.1672277342989 46.73676113618706 0.49999999999995115
    vertex 1626.1672277342989 55.23676113618707 0.49999999999995115
  endloop
endfacet
facet normal 0.0 0.0 1.0
  outer loop
    vertex 1628.1672277342989 46.73676113618706 0.49999999999995115
    vertex 1626.1672277342989 44.73676113618702 0.49999999999995115
    vertex 1631.1672277342989 44.73676113618702 0.49999999999995115
  endloop
endfacet
facet normal 0.0 0.0 1.0
  outer loop
    vertex 1628.1672277342989 46.73676113618706 0.49999999999995115
    vertex 1631.1672277342989 44.73676113618702 0.49999999999995115
    vertex 1631.1672277342989 46.73676113618706 0.49999999999995115
  endloop
endfacet
facet normal 0.0 0.0 1.0
  outer loop
    vertex 1631.1672277342989 28.736761136187052 0.49999999999995115
    vertex 1639.1672277342989 34.73676113618704 0.49999999999995115
    vertex 1631.1672277342989 44.73676113618702 0.49999999999995115
  endloop
endfacet
facet normal 0.0 0.0 1.0
  outer loop
    vertex 1639.1672277342989 34.73676113618704 0.49999999999995115
    vertex 1631.1672277342989 28.736761136187052 0.49999999999995115
    vertex 1693.1679681263106 28.736761136187052 0.49999999999995115
  endloop
endfacet
facet normal 0.0 0.0 1.0
  outer loop
    vertex 1631.1672277342989 44.73676113618702 0.49999999999995115
    vertex 1639.1672277342989 34.73676113618704 0.49999999999995115
    vertex 1631.1672277342989 46.73676113618706 0.49999999999995115
  endloop
endfacet
facet normal 0.0 0.0 1.0
  outer loop
    vertex 1631.1672277342989 46.73676113618706 0.49999999999995115
    vertex 1639.1672277342989 34.73676113618704 0.49999999999995115
    vertex 1631.1672277342989 48.23676113618704 0.49999999999995115
  endloop
endfacet
facet normal 0.0 0.0 1.0
  outer loop
    vertex 1631.1672277342989 48.23676113618704 0.49999999999995115
    vertex 1639.1672277342989 34.73676113618704 0.49999999999995115
    vertex 1631.1672277342989 51.736761136187056 0.49999999999995115
  endloop
endfacet
facet normal 0.0 0.0 1.0
  outer loop
    vertex 1631.1672277342989 51.736761136187056 0.49999999999995115
    vertex 1639.1672277342989 34.73676113618704 0.49999999999995115
    vertex 1631.1672277342989 53.23676113618708 0.49999999999995115
  endloop
endfacet
facet normal 0.0 0.0 1.0
  outer loop
    vertex 1631.1672277342989 53.23676113618708 0.49999999999995115
    vertex 1639.1672277342989 34.73676113618704 0.49999999999995115
    vertex 1631.1672277342989 55.23676113618707 0.49999999999995115
  endloop
endfacet
facet normal 0.0 0.0 1.0
  outer loop
    vertex 1631.1672277342989 55.23676113618707 0.49999999999995115
    vertex 1639.1672277342989 34.73676113618704 0.49999999999995115
    vertex 1631.1672277342989 71.23676113618708 0.49999999999995115
  endloop
endfacet
facet normal 0.0 0.0 1.0
  outer loop
    vertex 1639.1672277342989 34.73676113618704 0.49999999999995115
    vertex 1693.1679681263106 28.736761136187052 0.49999999999995115
    vertex 1685.1679681263106 34.73676113618704 0.49999999999995115
  endloop
endfacet
facet normal 0.0 0.0 1.0
  outer loop
    vertex 1685.1679681263106 34.73676113618704 0.49999999999995115
    vertex 1693.1679681263106 28.736761136187052 0.49999999999995115
    vertex 1685.1679681263106 37.736761136187084 0.49999999999995115
  endloop
endfacet
facet normal 0.0 0.0 1.0
  outer loop
    vertex 1685.1679681263106 37.736761136187084 0.49999999999995115
    vertex 1693.1679681263106 28.736761136187052 0.49999999999995115
    vertex 1685.1679681263106 40.73676113618703 0.49999999999995115
  endloop
endfacet
facet normal 0.0 0.0 1.0
  outer loop
    vertex 1685.1679681263106 40.73676113618703 0.49999999999995115
    vertex 1693.1679681263106 28.736761136187052 0.49999999999995115
    vertex 1685.1679681263106 43.73676113618707 0.49999999999995115
  endloop
endfacet
facet normal 0.0 0.0 1.0
  outer loop
    vertex 1685.1679681263106 43.73676113618707 0.49999999999995115
    vertex 1693.1679681263106 28.736761136187052 0.49999999999995115
    vertex 1685.1679681263106 46.73676113618702 0.49999999999995115
  endloop
endfacet
facet normal 0.0 0.0 1.0
  outer loop
    vertex 1685.1679681263106 46.73676113618702 0.49999999999995115
    vertex 1693.1679681263106 28.736761136187052 0.49999999999995115
    vertex 1685.1679681263106 49.73676113618706 0.49999999999995115
  endloop
endfacet
facet normal 0.0 0.0 1.0
  outer loop
    vertex 1685.1679681263106 49.73676113618706 0.49999999999995115
    vertex 1693.1679681263106 28.736761136187052 0.49999999999995115
    vertex 1685.1679681263106 52.7367611361871 0.49999999999995115
  endloop
endfacet
facet normal 0.0 0.0 1.0
  outer loop
    vertex 1685.1679681263106 52.7367611361871 0.49999999999995115
    vertex 1693.1679681263106 28.736761136187052 0.49999999999995115
    vertex 1685.1679681263106 55.73676113618709 0.49999999999995115
  endloop
endfacet
facet normal 0.0 0.0 1.0
  outer loop
    vertex 1685.1679681263106 55.73676113618709 0.49999999999995115
    vertex 1693.1679681263106 28.736761136187052 0.49999999999995115
    vertex 1685.1679681263106 58.73676113618709 0.49999999999995115
  endloop
endfacet
facet normal 0.0 0.0 1.0
  outer loop
    vertex 1685.1679681263106 58.73676113618709 0.49999999999995115
    vertex 1693.1679681263106 28.736761136187052 0.49999999999995115
    vertex 1685.1679681263106 61.736761136187084 0.49999999999995115
  endloop
endfacet
facet normal 0.0 0.0 1.0
  outer loop
    vertex 1685.1679681263106 61.736761136187084 0.49999999999995115
    vertex 1693.1679681263106 28.736761136187052 0.49999999999995115
    vertex 1685.1679681263106 64.73676113618707 0.49999999999995115
  endloop
endfacet
facet normal 0.0 0.0 1.0
  outer loop
    vertex 1685.1679681263106 64.73676113618707 0.49999999999995115
    vertex 1693.1679681263106 28.736761136187052 0.49999999999995115
    vertex 1685.1679681263106 67.73676113618707 0.49999999999995115
  endloop
endfacet
facet normal 0.0 0.0 1.0
  outer loop
    vertex 1631.1672277342989 71.23676113618708 0.49999999999995115
    vertex 1639.1672277342989 67.73676113618707 0.49999999999995115
    vertex 1693.1679681263106 71.23676113618708 0.49999999999995115
  endloop
endfacet
facet normal 0.0 0.0 1.0
  outer loop
    vertex 1639.1672277342989 67.73676113618707 0.49999999999995115
    vertex 1631.1672277342989 71.23676113618708 0.49999999999995115
    vertex 1639.1672277342989 34.73676113618704 0.49999999999995115
  endloop
endfacet
facet normal 0.0 0.0 1.0
  outer loop
    vertex 1639.1672277342989 67.73676113618707 0.49999999999995115
    vertex 1639.1672277342989 34.73676113618704 0.49999999999995115
    vertex 1639.1672277342989 37.736761136187084 0.49999999999995115
  endloop
endfacet
facet normal 0.0 0.0 1.0
  outer loop
    vertex 1639.1672277342989 67.73676113618707 0.49999999999995115
    vertex 1639.1672277342989 37.736761136187084 0.49999999999995115
    vertex 1639.1672277342989 40.73676113618703 0.49999999999995115
  endloop
endfacet
facet normal 0.0 0.0 1.0
  outer loop
    vertex 1639.1672277342989 67.73676113618707 0.49999999999995115
    vertex 1639.1672277342989 40.73676113618703 0.49999999999995115
    vertex 1639.1672277342989 43.73676113618707 0.49999999999995115
  endloop
endfacet
facet normal 0.0 0.0 1.0
  outer loop
    vertex 1639.1672277342989 67.73676113618707 0.49999999999995115
    vertex 1639.1672277342989 43.73676113618707 0.49999999999995115
    vertex 1639.1672277342989 46.73676113618702 0.49999999999995115
  endloop
endfacet
facet normal 0.0 0.0 1.0
  outer loop
    vertex 1639.1672277342989 67.73676113618707 0.49999999999995115
    vertex 1639.1672277342989 46.73676113618702 0.49999999999995115
    vertex 1639.1672277342989 49.73676113618706 0.49999999999995115
  endloop
endfacet
facet normal 0.0 0.0 1.0
  outer loop
    vertex 1639.1672277342989 67.73676113618707 0.49999999999995115
    vertex 1639.1672277342989 49.73676113618706 0.49999999999995115
    vertex 1639.1672277342989 52.7367611361871 0.49999999999995115
  endloop
endfacet
facet normal 0.0 0.0 1.0
  outer loop
    vertex 1639.1672277342989 67.73676113618707 0.49999999999995115
    vertex 1639.1672277342989 52.7367611361871 0.49999999999995115
    vertex 1639.1672277342989 55.73676113618709 0.49999999999995115
  endloop
endfacet
facet normal 0.0 0.0 1.0
  outer loop
    vertex 1639.1672277342989 67.73676113618707 0.49999999999995115
    vertex 1639.1672277342989 55.73676113618709 0.49999999999995115
    vertex 1639.1672277342989 58.73676113618709 0.49999999999995115
  endloop
endfacet
facet normal 0.0 0.0 1.0
  outer loop
    vertex 1639.1672277342989 67.73676113618707 0.49999999999995115
    vertex 1639.1672277342989 58.73676113618709 0.49999999999995115
    vertex 1639.1672277342989 61.736761136187084 0.4999999999999624
  endloop
endfacet
facet normal 0.0 0.0 1.0
  outer loop
    vertex 1639.1672277342989 67.73676113618707 0.49999999999995115
    vertex 1639.1672277342989 61.736761136187084 0.4999999999999624
    vertex 1639.1672277342989 64.73676113618707 0.49999999999995115
  endloop
endfacet
facet normal 0.0 0.0 1.0
  outer loop
    vertex 1693.1679681263106 71.23676113618708 0.49999999999995115
    vertex 1639.1672277342989 67.73676113618707 0.49999999999995115
    vertex 1685.1679681263106 67.73676113618707 0.49999999999995115
  endloop
endfacet
facet normal 0.0 0.0 1.0
  outer loop
    vertex 1693.1679681263106 71.23676113618708 0.49999999999995115
    vertex 1685.1679681263106 67.73676113618707 0.49999999999995115
    vertex 1693.1679681263106 28.736761136187052 0.49999999999995115
  endloop
endfacet
facet normal 0.0 0.0 1.0
  outer loop
    vertex 1685.1679681263106 61.736761136187084 0.49999999999995115
    vertex 1639.1672277342989 64.73676113618707 0.49999999999995115
    vertex 1639.1672277342989 61.736761136187084 0.4999999999999624
  endloop
endfacet
facet normal 0.0 0.0 1.0
  outer loop
    vertex 1639.1672277342989 64.73676113618707 0.49999999999995115
    vertex 1685.1679681263106 61.736761136187084 0.49999999999995115
    vertex 1685.1679681263106 64.73676113618707 0.49999999999995115
  endloop
endfacet
facet normal 0.0 0.0 1.0
  outer loop
    vertex 1685.1679681263106 55.73676113618709 0.49999999999995115
    vertex 1639.1672277342989 58.73676113618709 0.49999999999995115
    vertex 1639.1672277342989 55.73676113618709 0.49999999999995115
  endloop
endfacet
facet normal 0.0 0.0 1.0
  outer loop
    vertex 1639.1672277342989 58.73676113618709 0.49999999999995115
    vertex 1685.1679681263106 55.73676113618709 0.49999999999995115
    vertex 1685.1679681263106 58.73676113618709 0.49999999999995115
  endloop
endfacet
facet normal 0.0 0.0 1.0
  outer loop
    vertex 1685.1679681263106 49.73676113618706 0.49999999999995115
    vertex 1639.1672277342989 52.7367611361871 0.49999999999995115
    vertex 1639.1672277342989 49.73676113618706 0.49999999999995115
  endloop
endfacet
facet normal 0.0 0.0 1.0
  outer loop
    vertex 1639.1672277342989 52.7367611361871 0.49999999999995115
    vertex 1685.1679681263106 49.73676113618706 0.49999999999995115
    vertex 1685.1679681263106 52.7367611361871 0.49999999999995115
  endloop
endfacet
facet normal 0.0 0.0 1.0
  outer loop
    vertex 1685.1679681263106 43.73676113618707 0.49999999999995115
    vertex 1639.1672277342989 46.73676113618702 0.49999999999995115
    vertex 1639.1672277342989 43.73676113618707 0.49999999999995115
  endloop
endfacet
facet normal 0.0 0.0 1.0
  outer loop
    vertex 1639.1672277342989 46.73676113618702 0.49999999999995115
    vertex 1685.1679681263106 43.73676113618707 0.49999999999995115
    vertex 1685.1679681263106 46.73676113618702 0.49999999999995115
  endloop
endfacet
facet normal 0.0 0.0 1.0
  outer loop
    vertex 1685.1679681263106 37.736761136187084 0.49999999999995115
    vertex 1639.1672277342989 40.73676113618703 0.49999999999995115
    vertex 1639.1672277342989 37.736761136187084 0.49999999999995115
  endloop
endfacet
facet normal 0.0 0.0 1.0
  outer loop
    vertex 1639.1672277342989 40.73676113618703 0.49999999999995115
    vertex 1685.1679681263106 37.736761136187084 0.49999999999995115
    vertex 1685.1679681263106 40.73676113618703 0.49999999999995115
  endloop
endfacet
facet normal 0.0 1.0 0.0
  outer loop
    vertex 1631.1672277342989 71.23676113618708 0.49999999999995115
    vertex 1693.1679681263106 71.23676113618708 -1.0000000000000462
    vertex 1631.1672277342989 71.23676113618708 -1.0000000000000462
  endloop
endfacet
facet normal 0.0 1.0 0.0
  outer loop
    vertex 1693.1679681263106 71.23676113618708 -1.0000000000000462
    vertex 1631.1672277342989 71.23676113618708 0.49999999999995115
    vertex 1693.1679681263106 71.23676113618708 0.49999999999995115
  endloop
endfacet
facet normal 1.0 0.0 0.0
  outer loop
    vertex 1693.1679681263106 71.23676113618708 -1.0000000000000462
    vertex 1693.1679681263106 28.736761136187052 0.49999999999995115
    vertex 1693.1679681263106 28.736761136187052 -1.0000000000000462
  endloop
endfacet
facet normal 1.0 0.0 0.0
  outer loop
    vertex 1693.1679681263106 28.736761136187052 0.49999999999995115
    vertex 1693.1679681263106 71.23676113618708 -1.0000000000000462
    vertex 1693.1679681263106 71.23676113618708 0.49999999999995115
  endloop
endfacet
facet normal -0.0 -1.0 -0.0
  outer loop
    vertex 1693.1679681263106 28.736761136187052 0.49999999999995115
    vertex 1631.1672277342989 28.736761136187052 -1.0000000000000462
    vertex 1693.1679681263106 28.736761136187052 -1.0000000000000462
  endloop
endfacet
facet normal -0.0 -1.0 -0.0
  outer loop
    vertex 1631.1672277342989 28.736761136187052 -1.0000000000000462
    vertex 1693.1679681263106 28.736761136187052 0.49999999999995115
    vertex 1631.1672277342989 28.736761136187052 0.49999999999995115
  endloop
endfacet
facet normal -1.0 0.0 0.0
  outer loop
    vertex 1685.1679681263106 67.73676113618707 0.49999999999995115
    vertex 1685.1679681263106 64.73676113618707 -1.0000000000000462
    vertex 1685.1679681263106 64.73676113618707 0.49999999999995115
  endloop
endfacet
facet normal -1.0 0.0 0.0
  outer loop
    vertex 1685.1679681263106 64.73676113618707 -1.0000000000000462
    vertex 1685.1679681263106 67.73676113618707 0.49999999999995115
    vertex 1685.1679681263106 67.73676113618707 -1.0000000000000462
  endloop
endfacet
facet normal -0.0 -1.0 -0.0
  outer loop
    vertex 1685.1679681263106 67.73676113618707 0.49999999999995115
    vertex 1639.1672277342989 67.73676113618707 -1.0000000000000462
    vertex 1685.1679681263106 67.73676113618707 -1.0000000000000462
  endloop
endfacet
facet normal -0.0 -1.0 -0.0
  outer loop
    vertex 1639.1672277342989 67.73676113618707 -1.0000000000000462
    vertex 1685.1679681263106 67.73676113618707 0.49999999999995115
    vertex 1639.1672277342989 67.73676113618707 0.49999999999995115
  endloop
endfacet
facet normal 1.0 0.0 0.0
  outer loop
    vertex 1639.1672277342989 55.73676113618709 -1.0000000000000462
    vertex 1639.1672277342989 52.7367611361871 0.49999999999995115
    vertex 1639.1672277342989 52.7367611361871 -1.0000000000000462
  endloop
endfacet
facet normal 1.0 0.0 0.0
  outer loop
    vertex 1639.1672277342989 52.7367611361871 0.49999999999995115
    vertex 1639.1672277342989 55.73676113618709 -1.0000000000000462
    vertex 1639.1672277342989 55.73676113618709 0.49999999999995115
  endloop
endfacet
facet normal 0.0 1.0 0.0
  outer loop
    vertex 1639.1672277342989 58.73676113618709 0.49999999999995115
    vertex 1685.1679681263106 58.73676113618709 -1.0000000000000462
    vertex 1639.1672277342989 58.73676113618709 -1.0000000000000462
  endloop
endfacet
facet normal 0.0 1.0 0.0
  outer loop
    vertex 1685.1679681263106 58.73676113618709 -1.0000000000000462
    vertex 1639.1672277342989 58.73676113618709 0.49999999999995115
    vertex 1685.1679681263106 58.73676113618709 0.49999999999995115
  endloop
endfacet
facet normal 1.0 0.0 0.0
  outer loop
    vertex 1639.1672277342989 49.73676113618706 -1.0000000000000462
    vertex 1639.1672277342989 46.73676113618702 0.49999999999995115
    vertex 1639.1672277342989 46.73676113618702 -1.0000000000000462
  endloop
endfacet
facet normal 1.0 0.0 0.0
  outer loop
    vertex 1639.1672277342989 46.73676113618702 0.49999999999995115
    vertex 1639.1672277342989 49.73676113618706 -1.0000000000000462
    vertex 1639.1672277342989 49.73676113618706 0.49999999999995115
  endloop
endfacet
facet normal 1.0 0.0 0.0
  outer loop
    vertex 1639.1672277342989 67.73676113618707 -1.0000000000000462
    vertex 1639.1672277342989 64.73676113618707 0.49999999999995115
    vertex 1639.1672277342989 64.73676113618707 -1.0000000000000462
  endloop
endfacet
facet normal 1.0 0.0 0.0
  outer loop
    vertex 1639.1672277342989 64.73676113618707 0.49999999999995115
    vertex 1639.1672277342989 67.73676113618707 -1.0000000000000462
    vertex 1639.1672277342989 67.73676113618707 0.49999999999995115
  endloop
endfacet
facet normal -0.0 -1.0 -0.0
  outer loop
    vertex 1685.1679681263106 61.736761136187084 0.49999999999995115
    vertex 1639.1672277342989 61.736761136187084 -1.0000000000000404
    vertex 1685.1679681263106 61.736761136187084 -1.0000000000000462
  endloop
endfacet
facet normal -0.0 -1.0 -0.0
  outer loop
    vertex 1639.1672277342989 61.736761136187084 -1.0000000000000404
    vertex 1685.1679681263106 61.736761136187084 0.49999999999995115
    vertex 1639.1672277342989 61.736761136187084 0.4999999999999624
  endloop
endfacet
facet normal 0.0 1.0 0.0
  outer loop
    vertex 1639.1672277342989 52.7367611361871 0.49999999999995115
    vertex 1685.1679681263106 52.7367611361871 -1.0000000000000462
    vertex 1639.1672277342989 52.7367611361871 -1.0000000000000462
  endloop
endfacet
facet normal 0.0 1.0 0.0
  outer loop
    vertex 1685.1679681263106 52.7367611361871 -1.0000000000000462
    vertex 1639.1672277342989 52.7367611361871 0.49999999999995115
    vertex 1685.1679681263106 52.7367611361871 0.49999999999995115
  endloop
endfacet
facet normal 0.0 1.0 0.0
  outer loop
    vertex 1639.1672277342989 64.73676113618707 0.49999999999995115
    vertex 1685.1679681263106 64.73676113618707 -1.0000000000000462
    vertex 1639.1672277342989 64.73676113618707 -1.0000000000000462
  endloop
endfacet
facet normal 0.0 1.0 0.0
  outer loop
    vertex 1685.1679681263106 64.73676113618707 -1.0000000000000462
    vertex 1639.1672277342989 64.73676113618707 0.49999999999995115
    vertex 1685.1679681263106 64.73676113618707 0.49999999999995115
  endloop
endfacet
facet normal -1.0 0.0 0.0
  outer loop
    vertex 1685.1679681263106 49.73676113618706 0.49999999999995115
    vertex 1685.1679681263106 46.73676113618702 -1.0000000000000462
    vertex 1685.1679681263106 46.73676113618702 0.49999999999995115
  endloop
endfacet
facet normal -1.0 0.0 0.0
  outer loop
    vertex 1685.1679681263106 46.73676113618702 -1.0000000000000462
    vertex 1685.1679681263106 49.73676113618706 0.49999999999995115
    vertex 1685.1679681263106 49.73676113618706 -1.0000000000000462
  endloop
endfacet
facet normal -0.0 -1.0 -0.0
  outer loop
    vertex 1685.1679681263106 49.73676113618706 0.49999999999995115
    vertex 1639.1672277342989 49.73676113618706 -1.0000000000000462
    vertex 1685.1679681263106 49.73676113618706 -1.0000000000000462
  endloop
endfacet
facet normal -0.0 -1.0 -0.0
  outer loop
    vertex 1639.1672277342989 49.73676113618706 -1.0000000000000462
    vertex 1685.1679681263106 49.73676113618706 0.49999999999995115
    vertex 1639.1672277342989 49.73676113618706 0.49999999999995115
  endloop
endfacet
facet normal 1.0 0.0 0.0
  outer loop
    vertex 1639.1672277342989 61.736761136187084 -1.0000000000000404
    vertex 1639.1672277342989 58.73676113618709 0.49999999999995115
    vertex 1639.1672277342989 58.73676113618709 -1.0000000000000462
  endloop
endfacet
facet normal 1.0 0.0 0.0
  outer loop
    vertex 1639.1672277342989 58.73676113618709 0.49999999999995115
    vertex 1639.1672277342989 61.736761136187084 -1.0000000000000404
    vertex 1639.1672277342989 61.736761136187084 0.4999999999999624
  endloop
endfacet
facet normal -1.0 0.0 0.0
  outer loop
    vertex 1685.1679681263106 55.73676113618709 0.49999999999995115
    vertex 1685.1679681263106 52.7367611361871 -1.0000000000000462
    vertex 1685.1679681263106 52.7367611361871 0.49999999999995115
  endloop
endfacet
facet normal -1.0 0.0 0.0
  outer loop
    vertex 1685.1679681263106 52.7367611361871 -1.0000000000000462
    vertex 1685.1679681263106 55.73676113618709 0.49999999999995115
    vertex 1685.1679681263106 55.73676113618709 -1.0000000000000462
  endloop
endfacet
facet normal -1.0 0.0 0.0
  outer loop
    vertex 1685.1679681263106 61.736761136187084 0.49999999999995115
    vertex 1685.1679681263106 58.73676113618709 -1.0000000000000462
    vertex 1685.1679681263106 58.73676113618709 0.49999999999995115
  endloop
endfacet
facet normal -1.0 0.0 0.0
  outer loop
    vertex 1685.1679681263106 58.73676113618709 -1.0000000000000462
    vertex 1685.1679681263106 61.736761136187084 0.49999999999995115
    vertex 1685.1679681263106 61.736761136187084 -1.0000000000000462
  endloop
endfacet
facet normal -0.0 -1.0 -0.0
  outer loop
    vertex 1685.1679681263106 55.73676113618709 0.49999999999995115
    vertex 1639.1672277342989 55.73676113618709 -1.0000000000000462
    vertex 1685.1679681263106 55.73676113618709 -1.0000000000000462
  endloop
endfacet
facet normal -0.0 -1.0 -0.0
  outer loop
    vertex 1639.1672277342989 55.73676113618709 -1.0000000000000462
    vertex 1685.1679681263106 55.73676113618709 0.49999999999995115
    vertex 1639.1672277342989 55.73676113618709 0.49999999999995115
  endloop
endfacet
facet normal 1.0 0.0 0.0
  outer loop
    vertex 1639.1672277342989 43.73676113618707 -1.0000000000000462
    vertex 1639.1672277342989 40.73676113618703 0.49999999999995115
    vertex 1639.1672277342989 40.73676113618703 -1.0000000000000462
  endloop
endfacet
facet normal 1.0 0.0 0.0
  outer loop
    vertex 1639.1672277342989 40.73676113618703 0.49999999999995115
    vertex 1639.1672277342989 43.73676113618707 -1.0000000000000462
    vertex 1639.1672277342989 43.73676113618707 0.49999999999995115
  endloop
endfacet
facet normal 1.0 0.0 0.0
  outer loop
    vertex 1639.1672277342989 37.736761136187084 -1.0000000000000462
    vertex 1639.1672277342989 34.73676113618704 0.49999999999995115
    vertex 1639.1672277342989 34.73676113618704 -1.0000000000000462
  endloop
endfacet
facet normal 1.0 0.0 0.0
  outer loop
    vertex 1639.1672277342989 34.73676113618704 0.49999999999995115
    vertex 1639.1672277342989 37.736761136187084 -1.0000000000000462
    vertex 1639.1672277342989 37.736761136187084 0.49999999999995115
  endloop
endfacet
facet normal 0.0 1.0 0.0
  outer loop
    vertex 1639.1672277342989 46.73676113618702 0.49999999999995115
    vertex 1685.1679681263106 46.73676113618702 -1.0000000000000462
    vertex 1639.1672277342989 46.73676113618702 -1.0000000000000462
  endloop
endfacet
facet normal 0.0 1.0 0.0
  outer loop
    vertex 1685.1679681263106 46.73676113618702 -1.0000000000000462
    vertex 1639.1672277342989 46.73676113618702 0.49999999999995115
    vertex 1685.1679681263106 46.73676113618702 0.49999999999995115
  endloop
endfacet
facet normal -0.0 -1.0 -0.0
  outer loop
    vertex 1685.1679681263106 37.736761136187084 0.49999999999995115
    vertex 1639.1672277342989 37.736761136187084 -1.0000000000000462
    vertex 1685.1679681263106 37.736761136187084 -1.0000000000000462
  endloop
endfacet
facet normal -0.0 -1.0 -0.0
  outer loop
    vertex 1639.1672277342989 37.736761136187084 -1.0000000000000462
    vertex 1685.1679681263106 37.736761136187084 0.49999999999995115
    vertex 1639.1672277342989 37.736761136187084 0.49999999999995115
  endloop
endfacet
facet normal -1.0 0.0 0.0
  outer loop
    vertex 1685.1679681263106 37.736761136187084 0.49999999999995115
    vertex 1685.1679681263106 34.73676113618704 -1.0000000000000462
    vertex 1685.1679681263106 34.73676113618704 0.49999999999995115
  endloop
endfacet
facet normal -1.0 0.0 0.0
  outer loop
    vertex 1685.1679681263106 34.73676113618704 -1.0000000000000462
    vertex 1685.1679681263106 37.736761136187084 0.49999999999995115
    vertex 1685.1679681263106 37.736761136187084 -1.0000000000000462
  endloop
endfacet
facet normal 0.0 1.0 0.0
  outer loop
    vertex 1639.1672277342989 34.73676113618704 0.49999999999995115
    vertex 1685.1679681263106 34.73676113618704 -1.0000000000000462
    vertex 1639.1672277342989 34.73676113618704 -1.0000000000000462
  endloop
endfacet
facet normal 0.0 1.0 0.0
  outer loop
    vertex 1685.1679681263106 34.73676113618704 -1.0000000000000462
    vertex 1639.1672277342989 34.73676113618704 0.49999999999995115
    vertex 1685.1679681263106 34.73676113618704 0.49999999999995115
  endloop
endfacet
facet normal -1.0 0.0 0.0
  outer loop
    vertex 1685.1679681263106 43.73676113618707 0.49999999999995115
    vertex 1685.1679681263106 40.73676113618703 -1.0000000000000462
    vertex 1685.1679681263106 40.73676113618703 0.49999999999995115
  endloop
endfacet
facet normal -1.0 0.0 0.0
  outer loop
    vertex 1685.1679681263106 40.73676113618703 -1.0000000000000462
    vertex 1685.1679681263106 43.73676113618707 0.49999999999995115
    vertex 1685.1679681263106 43.73676113618707 -1.0000000000000462
  endloop
endfacet
facet normal -0.0 -1.0 -0.0
  outer loop
    vertex 1685.1679681263106 43.73676113618707 0.49999999999995115
    vertex 1639.1672277342989 43.73676113618707 -1.0000000000000462
    vertex 1685.1679681263106 43.73676113618707 -1.0000000000000462
  endloop
endfacet
facet normal -0.0 -1.0 -0.0
  outer loop
    vertex 1639.1672277342989 43.73676113618707 -1.0000000000000462
    vertex 1685.1679681263106 43.73676113618707 0.49999999999995115
    vertex 1639.1672277342989 43.73676113618707 0.49999999999995115
  endloop
endfacet
facet normal 0.0 1.0 0.0
  outer loop
    vertex 1639.1672277342989 40.73676113618703 0.49999999999995115
    vertex 1685.1679681263106 40.73676113618703 -1.0000000000000462
    vertex 1639.1672277342989 40.73676113618703 -1.0000000000000462
  endloop
endfacet
facet normal 0.0 1.0 0.0
  outer loop
    vertex 1685.1679681263106 40.73676113618703 -1.0000000000000462
    vertex 1639.1672277342989 40.73676113618703 0.49999999999995115
    vertex 1685.1679681263106 40.73676113618703 0.49999999999995115
  endloop
endfacet
facet normal 0.0 0.0 -1.0
  outer loop
    vertex 1626.1672277342989 44.73676113618702 -1.0000000000000462
    vertex 1628.1672277342989 46.73676113618706 -1.0000000000000462
    vertex 1631.1672277342989 44.73676113618702 -1.0000000000000462
  endloop
endfacet
facet normal 0.0 0.0 -1.0
  outer loop
    vertex 1628.1672277342989 46.73676113618706 -1.0000000000000462
    vertex 1626.1672277342989 44.73676113618702 -1.0000000000000462
    vertex 1628.1672277342989 53.23676113618708 -1.0000000000000462
  endloop
endfacet
facet normal 0.0 0.0 -1.0
  outer loop
    vertex 1628.1672277342989 46.73676113618706 -1.0000000000000462
    vertex 1628.1672277342989 53.23676113618708 -1.0000000000000462
    vertex 1628.1672277342989 51.736761136187056 -1.0000000000000462
  endloop
endfacet
facet normal 0.0 0.0 -1.0
  outer loop
    vertex 1628.1672277342989 46.73676113618706 -1.0000000000000462
    vertex 1628.1672277342989 51.736761136187056 -1.0000000000000462
    vertex 1628.1672277342989 48.23676113618704 -1.0000000000000462
  endloop
endfacet
facet normal 0.0 0.0 -1.0
  outer loop
    vertex 1631.1672277342989 44.73676113618702 -1.0000000000000462
    vertex 1628.1672277342989 46.73676113618706 -1.0000000000000462
    vertex 1631.1672277342989 46.73676113618706 -1.0000000000000462
  endloop
endfacet
facet normal 0.0 0.0 -1.0
  outer loop
    vertex 1631.1672277342989 51.736761136187056 -1.0000000000000462
    vertex 1628.1672277342989 48.23676113618704 -1.0000000000000462
    vertex 1628.1672277342989 51.736761136187056 -1.0000000000000462
  endloop
endfacet
facet normal 0.0 0.0 -1.0
  outer loop
    vertex 1628.1672277342989 48.23676113618704 -1.0000000000000462
    vertex 1631.1672277342989 51.736761136187056 -1.0000000000000462
    vertex 1631.1672277342989 48.23676113618704 -1.0000000000000462
  endloop
endfacet
facet normal 0.0 0.0 -1.0
  outer loop
    vertex 1626.1672277342989 55.23676113618707 -1.0000000000000462
    vertex 1628.1672277342989 53.23676113618708 -1.0000000000000462
    vertex 1626.1672277342989 44.73676113618702 -1.0000000000000462
  endloop
endfacet
facet normal 0.0 0.0 -1.0
  outer loop
    vertex 1628.1672277342989 53.23676113618708 -1.0000000000000462
    vertex 1626.1672277342989 55.23676113618707 -1.0000000000000462
    vertex 1631.1672277342989 55.23676113618707 -1.0000000000000462
  endloop
endfacet
facet normal 0.0 0.0 -1.0
  outer loop
    vertex 1628.1672277342989 53.23676113618708 -1.0000000000000462
    vertex 1631.1672277342989 55.23676113618707 -1.0000000000000462
    vertex 1631.1672277342989 53.23676113618708 -1.0000000000000462
  endloop
endfacet
facet normal 0.0 0.0 -1.0
  outer loop
    vertex 1631.1672277342989 71.23676113618708 -1.0000000000000462
    vertex 1639.1672277342989 67.73676113618707 -1.0000000000000462
    vertex 1631.1672277342989 55.23676113618707 -1.0000000000000462
  endloop
endfacet
facet normal 0.0 0.0 -1.0
  outer loop
    vertex 1639.1672277342989 67.73676113618707 -1.0000000000000462
    vertex 1631.1672277342989 71.23676113618708 -1.0000000000000462
    vertex 1693.1679681263106 71.23676113618708 -1.0000000000000462
  endloop
endfacet
facet normal 0.0 0.0 -1.0
  outer loop
    vertex 1631.1672277342989 55.23676113618707 -1.0000000000000462
    vertex 1639.1672277342989 67.73676113618707 -1.0000000000000462
    vertex 1631.1672277342989 53.23676113618708 -1.0000000000000462
  endloop
endfacet
facet normal 0.0 0.0 -1.0
  outer loop
    vertex 1631.1672277342989 53.23676113618708 -1.0000000000000462
    vertex 1639.1672277342989 67.73676113618707 -1.0000000000000462
    vertex 1631.1672277342989 51.736761136187056 -1.0000000000000462
  endloop
endfacet
facet normal 0.0 0.0 -1.0
  outer loop
    vertex 1631.1672277342989 51.736761136187056 -1.0000000000000462
    vertex 1639.1672277342989 67.73676113618707 -1.0000000000000462
    vertex 1631.1672277342989 48.23676113618704 -1.0000000000000462
  endloop
endfacet
facet normal 0.0 0.0 -1.0
  outer loop
    vertex 1631.1672277342989 48.23676113618704 -1.0000000000000462
    vertex 1639.1672277342989 67.73676113618707 -1.0000000000000462
    vertex 1631.1672277342989 46.73676113618706 -1.0000000000000462
  endloop
endfacet
facet normal 0.0 0.0 -1.0
  outer loop
    vertex 1631.1672277342989 46.73676113618706 -1.0000000000000462
    vertex 1639.1672277342989 67.73676113618707 -1.0000000000000462
    vertex 1631.1672277342989 44.73676113618702 -1.0000000000000462
  endloop
endfacet
facet normal 0.0 0.0 -1.0
  outer loop
    vertex 1631.1672277342989 44.73676113618702 -1.0000000000000462
    vertex 1639.1672277342989 67.73676113618707 -1.0000000000000462
    vertex 1631.1672277342989 28.736761136187052 -1.0000000000000462
  endloop
endfacet
facet normal 0.0 0.0 -1.0
  outer loop
    vertex 1639.1672277342989 67.73676113618707 -1.0000000000000462
    vertex 1693.1679681263106 71.23676113618708 -1.0000000000000462
    vertex 1685.1679681263106 67.73676113618707 -1.0000000000000462
  endloop
endfacet
facet normal 0.0 0.0 -1.0
  outer loop
    vertex 1685.1679681263106 67.73676113618707 -1.0000000000000462
    vertex 1693.1679681263106 71.23676113618708 -1.0000000000000462
    vertex 1685.1679681263106 64.73676113618707 -1.0000000000000462
  endloop
endfacet
facet normal 0.0 0.0 -1.0
  outer loop
    vertex 1685.1679681263106 64.73676113618707 -1.0000000000000462
    vertex 1693.1679681263106 71.23676113618708 -1.0000000000000462
    vertex 1685.1679681263106 61.736761136187084 -1.0000000000000462
  endloop
endfacet
facet normal 0.0 0.0 -1.0
  outer loop
    vertex 1685.1679681263106 61.736761136187084 -1.0000000000000462
    vertex 1693.1679681263106 71.23676113618708 -1.0000000000000462
    vertex 1685.1679681263106 58.73676113618709 -1.0000000000000462
  endloop
endfacet
facet normal 0.0 0.0 -1.0
  outer loop
    vertex 1685.1679681263106 58.73676113618709 -1.0000000000000462
    vertex 1693.1679681263106 71.23676113618708 -1.0000000000000462
    vertex 1685.1679681263106 55.73676113618709 -1.0000000000000462
  endloop
endfacet
facet normal 0.0 0.0 -1.0
  outer loop
    vertex 1685.1679681263106 55.73676113618709 -1.0000000000000462
    vertex 1693.1679681263106 71.23676113618708 -1.0000000000000462
    vertex 1685.1679681263106 52.7367611361871 -1.0000000000000462
  endloop
endfacet
facet normal 0.0 0.0 -1.0
  outer loop
    vertex 1685.1679681263106 52.7367611361871 -1.0000000000000462
    vertex 1693.1679681263106 71.23676113618708 -1.0000000000000462
    vertex 1685.1679681263106 49.73676113618706 -1.0000000000000462
  endloop
endfacet
facet normal 0.0 0.0 -1.0
  outer loop
    vertex 1685.1679681263106 49.73676113618706 -1.0000000000000462
    vertex 1693.1679681263106 71.23676113618708 -1.0000000000000462
    vertex 1685.1679681263106 46.73676113618702 -1.0000000000000462
  endloop
endfacet
facet normal 0.0 0.0 -1.0
  outer loop
    vertex 1685.1679681263106 46.73676113618702 -1.0000000000000462
    vertex 1693.1679681263106 71.23676113618708 -1.0000000000000462
    vertex 1685.1679681263106 43.73676113618707 -1.0000000000000462
  endloop
endfacet
facet normal 0.0 0.0 -1.0
  outer loop
    vertex 1685.1679681263106 43.73676113618707 -1.0000000000000462
    vertex 1693.1679681263106 71.23676113618708 -1.0000000000000462
    vertex 1685.1679681263106 40.73676113618703 -1.0000000000000462
  endloop
endfacet
facet normal 0.0 0.0 -1.0
  outer loop
    vertex 1685.1679681263106 40.73676113618703 -1.0000000000000462
    vertex 1693.1679681263106 71.23676113618708 -1.0000000000000462
    vertex 1685.1679681263106 37.736761136187084 -1.0000000000000462
  endloop
endfacet
facet normal 0.0 0.0 -1.0
  outer loop
    vertex 1685.1679681263106 37.736761136187084 -1.0000000000000462
    vertex 1693.1679681263106 71.23676113618708 -1.0000000000000462
    vertex 1685.1679681263106 34.73676113618704 -1.0000000000000462
  endloop
endfacet
facet normal 0.0 0.0 -1.0
  outer loop
    vertex 1631.1672277342989 28.736761136187052 -1.0000000000000462
    vertex 1639.1672277342989 34.73676113618704 -1.0000000000000462
    vertex 1693.1679681263106 28.736761136187052 -1.0000000000000462
  endloop
endfacet
facet normal 0.0 0.0 -1.0
  outer loop
    vertex 1639.1672277342989 34.73676113618704 -1.0000000000000462
    vertex 1631.1672277342989 28.736761136187052 -1.0000000000000462
    vertex 1639.1672277342989 67.73676113618707 -1.0000000000000462
  endloop
endfacet
facet normal 0.0 0.0 -1.0
  outer loop
    vertex 1639.1672277342989 34.73676113618704 -1.0000000000000462
    vertex 1639.1672277342989 67.73676113618707 -1.0000000000000462
    vertex 1639.1672277342989 64.73676113618707 -1.0000000000000462
  endloop
endfacet
facet normal 0.0 0.0 -1.0
  outer loop
    vertex 1639.1672277342989 34.73676113618704 -1.0000000000000462
    vertex 1639.1672277342989 64.73676113618707 -1.0000000000000462
    vertex 1639.1672277342989 61.736761136187084 -1.0000000000000404
  endloop
endfacet
facet normal 0.0 0.0 -1.0
  outer loop
    vertex 1639.1672277342989 34.73676113618704 -1.0000000000000462
    vertex 1639.1672277342989 61.736761136187084 -1.0000000000000404
    vertex 1639.1672277342989 58.73676113618709 -1.0000000000000462
  endloop
endfacet
facet normal 0.0 0.0 -1.0
  outer loop
    vertex 1639.1672277342989 34.73676113618704 -1.0000000000000462
    vertex 1639.1672277342989 58.73676113618709 -1.0000000000000462
    vertex 1639.1672277342989 55.73676113618709 -1.0000000000000462
  endloop
endfacet
facet normal 0.0 0.0 -1.0
  outer loop
    vertex 1639.1672277342989 34.73676113618704 -1.0000000000000462
    vertex 1639.1672277342989 55.73676113618709 -1.0000000000000462
    vertex 1639.1672277342989 52.7367611361871 -1.0000000000000462
  endloop
endfacet
facet normal 0.0 0.0 -1.0
  outer loop
    vertex 1639.1672277342989 34.73676113618704 -1.0000000000000462
    vertex 1639.1672277342989 52.7367611361871 -1.0000000000000462
    vertex 1639.1672277342989 49.73676113618706 -1.0000000000000462
  endloop
endfacet
facet normal 0.0 0.0 -1.0
  outer loop
    vertex 1639.1672277342989 34.73676113618704 -1.0000000000000462
    vertex 1639.1672277342989 49.73676113618706 -1.0000000000000462
    vertex 1639.1672277342989 46.73676113618702 -1.0000000000000462
  endloop
endfacet
facet normal 0.0 0.0 -1.0
  outer loop
    vertex 1639.1672277342989 34.73676113618704 -1.0000000000000462
    vertex 1639.1672277342989 46.73676113618702 -1.0000000000000462
    vertex 1639.1672277342989 43.73676113618707 -1.0000000000000462
  endloop
endfacet
facet normal 0.0 0.0 -1.0
  outer loop
    vertex 1639.1672277342989 34.73676113618704 -1.0000000000000462
    vertex 1639.1672277342989 43.73676113618707 -1.0000000000000462
    vertex 1639.1672277342989 40.73676113618703 -1.0000000000000462
  endloop
endfacet
facet normal 0.0 0.0 -1.0
  outer loop
    vertex 1639.1672277342989 34.73676113618704 -1.0000000000000462
    vertex 1639.1672277342989 40.73676113618703 -1.0000000000000462
    vertex 1639.1672277342989 37.736761136187084 -1.0000000000000462
  endloop
endfacet
facet normal 0.0 0.0 -1.0
  outer loop
    vertex 1693.1679681263106 28.736761136187052 -1.0000000000000462
    vertex 1639.1672277342989 34.73676113618704 -1.0000000000000462
    vertex 1685.1679681263106 34.73676113618704 -1.0000000000000462
  endloop
endfacet
facet normal 0.0 0.0 -1.0
  outer loop
    vertex 1693.1679681263106 28.736761136187052 -1.0000000000000462
    vertex 1685.1679681263106 34.73676113618704 -1.0000000000000462
    vertex 1693.1679681263106 71.23676113618708 -1.0000000000000462
  endloop
endfacet
facet normal 0.0 0.0 -1.0
  outer loop
    vertex 1685.1679681263106 40.73676113618703 -1.0000000000000462
    vertex 1639.1672277342989 37.736761136187084 -1.0000000000000462
    vertex 1639.1672277342989 40.73676113618703 -1.0000000000000462
  endloop
endfacet
facet normal 0.0 0.0 -1.0
  outer loop
    vertex 1639.1672277342989 37.736761136187084 -1.0000000000000462
    vertex 1685.1679681263106 40.73676113618703 -1.0000000000000462
    vertex 1685.1679681263106 37.736761136187084 -1.0000000000000462
  endloop
endfacet
facet normal 0.0 0.0 -1.0
  outer loop
    vertex 1685.1679681263106 46.73676113618702 -1.0000000000000462
    vertex 1639.1672277342989 43.73676113618707 -1.0000000000000462
    vertex 1639.1672277342989 46.73676113618702 -1.0000000000000462
  endloop
endfacet
facet normal 0.0 0.0 -1.0
  outer loop
    vertex 1639.1672277342989 43.73676113618707 -1.0000000000000462
    vertex 1685.1679681263106 46.73676113618702 -1.0000000000000462
    vertex 1685.1679681263106 43.73676113618707 -1.0000000000000462
  endloop
endfacet
facet normal 0.0 0.0 -1.0
  outer loop
    vertex 1685.1679681263106 52.7367611361871 -1.0000000000000462
    vertex 1639.1672277342989 49.73676113618706 -1.0000000000000462
    vertex 1639.1672277342989 52.7367611361871 -1.0000000000000462
  endloop
endfacet
facet normal 0.0 0.0 -1.0
  outer loop
    vertex 1639.1672277342989 49.73676113618706 -1.0000000000000462
    vertex 1685.1679681263106 52.7367611361871 -1.0000000000000462
    vertex 1685.1679681263106 49.73676113618706 -1.0000000000000462
  endloop
endfacet
facet normal 0.0 0.0 -1.0
  outer loop
    vertex 1685.1679681263106 58.73676113618709 -1.0000000000000462
    vertex 1639.1672277342989 55.73676113618709 -1.0000000000000462
    vertex 1639.1672277342989 58.73676113618709 -1.0000000000000462
  endloop
endfacet
facet normal 0.0 0.0 -1.0
  outer loop
    vertex 1639.1672277342989 55.73676113618709 -1.0000000000000462
    vertex 1685.1679681263106 58.73676113618709 -1.0000000000000462
    vertex 1685.1679681263106 55.73676113618709 -1.0000000000000462
  endloop
endfacet
facet normal 0.0 0.0 -1.0
  outer loop
    vertex 1685.1679681263106 64.73676113618707 -1.0000000000000462
    vertex 1639.1672277342989 61.736761136187084 -1.0000000000000404
    vertex 1639.1672277342989 64.73676113618707 -1.0000000000000462
  endloop
endfacet
facet normal 0.0 0.0 -1.0
  outer loop
    vertex 1639.1672277342989 61.736761136187084 -1.0000000000000404
    vertex 1685.1679681263106 64.73676113618707 -1.0000000000000462
    vertex 1685.1679681263106 61.736761136187084 -1.0000000000000462
  endloop
endfacet
facet normal -1.0 0.0 0.0
  outer loop
    vertex 1631.1672277342989 44.73676113618702 0.49999999999995115
    vertex 1631.1672277342989 28.736761136187052 -1.0000000000000462
    vertex 1631.1672277342989 28.736761136187052 0.49999999999995115
  endloop
endfacet
facet normal -1.0 0.0 0.0
  outer loop
    vertex 1631.1672277342989 28.736761136187052 -1.0000000000000462
    vertex 1631.1672277342989 44.73676113618702 0.49999999999995115
    vertex 1631.1672277342989 44.73676113618702 -1.0000000000000462
  endloop
endfacet
facet normal -1.0 0.0 0.0
  outer loop
    vertex 1631.1672277342989 71.23676113618708 0.49999999999995115
    vertex 1631.1672277342989 55.23676113618707 -1.0000000000000462
    vertex 1631.1672277342989 55.23676113618707 0.49999999999995115
  endloop
endfacet
facet normal -1.0 0.0 0.0
  outer loop
    vertex 1631.1672277342989 55.23676113618707 -1.0000000000000462
    vertex 1631.1672277342989 71.23676113618708 0.49999999999995115
    vertex 1631.1672277342989 71.23676113618708 -1.0000000000000462
  endloop
endfacet
facet normal -1.0 0.0 0.0
  outer loop
    vertex 1626.1672277342989 55.23676113618707 0.49999999999995115
    vertex 1626.1672277342989 44.73676113618702 -1.0000000000000462
    vertex 1626.1672277342989 44.73676113618702 0.49999999999995115
  endloop
endfacet
facet normal -1.0 0.0 0.0
  outer loop
    vertex 1626.1672277342989 44.73676113618702 -1.0000000000000462
    vertex 1626.1672277342989 55.23676113618707 0.49999999999995115
    vertex 1626.1672277342989 55.23676113618707 -1.0000000000000462
  endloop
endfacet
facet normal 0.0 1.0 0.0
  outer loop
    vertex 1626.1672277342989 55.23676113618707 0.49999999999995115
    vertex 1631.1672277342989 55.23676113618707 -1.0000000000000462
    vertex 1626.1672277342989 55.23676113618707 -1.0000000000000462
  endloop
endfacet
facet normal 0.0 1.0 0.0
  outer loop
    vertex 1631.1672277342989 55.23676113618707 -1.0000000000000462
    vertex 1626.1672277342989 55.23676113618707 0.49999999999995115
    vertex 1631.1672277342989 55.23676113618707 0.49999999999995115
  endloop
endfacet
facet normal 0.0 -1.0 0.0
  outer loop
    vertex 1631.1672277342989 44.73676113618702 0.49999999999995115
    vertex 1626.1672277342989 44.73676113618702 -1.0000000000000462
    vertex 1631.1672277342989 44.73676113618702 -1.0000000000000462
  endloop
endfacet
facet normal 0.0 -1.0 0.0
  outer loop
    vertex 1626.1672277342989 44.73676113618702 -1.0000000000000462
    vertex 1631.1672277342989 44.73676113618702 0.49999999999995115
    vertex 1626.1672277342989 44.73676113618702 0.49999999999995115
  endloop
endfacet
facet normal 0.0 1.0 0.0
  outer loop
    vertex 1628.1672277342989 51.736761136187056 0.49999999999995115
    vertex 1631.1672277342989 51.736761136187056 -1.0000000000000462
    vertex 1628.1672277342989 51.736761136187056 -1.0000000000000462
  endloop
endfacet
facet normal 0.0 1.0 0.0
  outer loop
    vertex 1631.1672277342989 51.736761136187056 -1.0000000000000462
    vertex 1628.1672277342989 51.736761136187056 0.49999999999995115
    vertex 1631.1672277342989 51.736761136187056 0.49999999999995115
  endloop
endfacet
facet normal -1.0 0.0 0.0
  outer loop
    vertex 1631.1672277342989 53.23676113618708 0.49999999999995115
    vertex 1631.1672277342989 51.736761136187056 -1.0000000000000462
    vertex 1631.1672277342989 51.736761136187056 0.49999999999995115
  endloop
endfacet
facet normal -1.0 0.0 0.0
  outer loop
    vertex 1631.1672277342989 51.736761136187056 -1.0000000000000462
    vertex 1631.1672277342989 53.23676113618708 0.49999999999995115
    vertex 1631.1672277342989 53.23676113618708 -1.0000000000000462
  endloop
endfacet
facet normal -0.0 -1.0 -0.0
  outer loop
    vertex 1631.1672277342989 53.23676113618708 0.49999999999995115
    vertex 1628.1672277342989 53.23676113618708 -1.0000000000000462
    vertex 1631.1672277342989 53.23676113618708 -1.0000000000000462
  endloop
endfacet
facet normal -0.0 -1.0 -0.0
  outer loop
    vertex 1628.1672277342989 53.23676113618708 -1.0000000000000462
    vertex 1631.1672277342989 53.23676113618708 0.49999999999995115
    vertex 1628.1672277342989 53.23676113618708 0.49999999999995115
  endloop
endfacet
facet normal 1.0 0.0 0.0
  outer loop
    vertex 1628.1672277342989 53.23676113618708 -1.0000000000000462
    vertex 1628.1672277342989 51.736761136187056 0.49999999999995115
    vertex 1628.1672277342989 51.736761136187056 -1.0000000000000462
  endloop
endfacet
facet normal 1.0 0.0 0.0
  outer loop
    vertex 1628.1672277342989 51.736761136187056 0.49999999999995115
    vertex 1628.1672277342989 53.23676113618708 -1.0000000000000462
    vertex 1628.1672277342989 53.23676113618708 0.49999999999995115
  endloop
endfacet
facet normal -1.0 0.0 0.0
  outer loop
    vertex 1631.1672277342989 48.23676113618704 0.49999999999995115
    vertex 1631.1672277342989 46.73676113618706 -1.0000000000000462
    vertex 1631.1672277342989 46.73676113618706 0.49999999999995115
  endloop
endfacet
facet normal -1.0 0.0 0.0
  outer loop
    vertex 1631.1672277342989 46.73676113618706 -1.0000000000000462
    vertex 1631.1672277342989 48.23676113618704 0.49999999999995115
    vertex 1631.1672277342989 48.23676113618704 -1.0000000000000462
  endloop
endfacet
facet normal -0.0 -1.0 -0.0
  outer loop
    vertex 1631.1672277342989 48.23676113618704 0.49999999999995115
    vertex 1628.1672277342989 48.23676113618704 -1.0000000000000462
    vertex 1631.1672277342989 48.23676113618704 -1.0000000000000462
  endloop
endfacet
facet normal -0.0 -1.0 -0.0
  outer loop
    vertex 1628.1672277342989 48.23676113618704 -1.0000000000000462
    vertex 1631.1672277342989 48.23676113618704 0.49999999999995115
    vertex 1628.1672277342989 48.23676113618704 0.49999999999995115
  endloop
endfacet
facet normal 1.0 0.0 0.0
  outer loop
    vertex 1628.1672277342989 48.23676113618704 -1.0000000000000462
    vertex 1628.1672277342989 46.73676113618706 0.49999999999995115
    vertex 1628.1672277342989 46.73676113618706 -1.0000000000000462
  endloop
endfacet
facet normal 1.0 0.0 0.0
  outer loop
    vertex 1628.1672277342989 46.73676113618706 0.49999999999995115
    vertex 1628.1672277342989 48.23676113618704 -1.0000000000000462
    vertex 1628.1672277342989 48.23676113618704 0.49999999999995115
  endloop
endfacet
facet normal 0.0 1.0 0.0
  outer loop
    vertex 1628.1672277342989 46.73676113618706 0.49999999999995115
    vertex 1631.1672277342989 46.73676113618706 -1.0000000000000462
    vertex 1628.1672277342989 46.73676113618706 -1.0000000000000462
  endloop
endfacet
facet normal 0.0 1.0 0.0
  outer loop
    vertex 1631.1672277342989 46.73676113618706 -1.0000000000000462
    vertex 1628.1672277342989 46.73676113618706 0.49999999999995115
    vertex 1631.1672277342989 46.73676113618706 0.49999999999995115
  endloop
endfacet
endsolid Radiator fan 06
